<?xml version="1.0" encoding="UTF-8" standalone="no"?>
<svg
  version="1.1"
  viewBox="0.0 0.0 880.0 880.0"
  width="880"
  height="880"
  xmlns="http://www.w3.org/2000/svg">
  <title>例）買い切り型のスマホゲーム</title>
  
  <!-- Title Text and Underline -->
  <text x="440.0" y="40" font-size="28" font-family="sans-serif" font-weight="bold" fill="#000000" text-anchor="middle" dominant-baseline="hanging">例）買い切り型のスマホゲーム</text>
  <line x1="0" y1="80" x2="880.0" y2="80" stroke="#000000" stroke-width="1" />

  <defs>
    <!-- Arrow head markers for different arrow types -->
    <marker id="marker_object" markerWidth="10" markerHeight="10" refX="9" refY="3" orient="auto" markerUnits="strokeWidth">
      <path d="M 0,0 L 10,3 L 0,6 Z" fill="#000000"/>
    </marker>
    <marker id="marker_money" markerWidth="10" markerHeight="10" refX="9" refY="3" orient="auto" markerUnits="strokeWidth">
      <path d="M 0,0 L 10,3 L 0,6 Z" fill="#000000"/>
    </marker>
    <marker id="marker_information" markerWidth="10" markerHeight="10" refX="9" refY="3" orient="auto" markerUnits="strokeWidth">
      <path d="M 0,0 L 10,3 L 0,6 Z" fill="#000000"/>
    </marker>
    <marker id="marker_other" markerWidth="10" markerHeight="10" refX="9" refY="3" orient="auto" markerUnits="strokeWidth">
      <path d="M 0,0 L 10,3 L 0,6 Z" fill="#000000"/>
    </marker>
  </defs>
  <!-- Background Grid Lines -->
  <g id="background_grid" stroke="#cccccc" stroke-width="2" stroke-dasharray="8,8">
    <line x1="160.0" y1="320.0" x2="720.0" y2="320.0" />
    <line x1="160.0" y1="560.0" x2="720.0" y2="560.0" />
  </g>

  <!-- Entities -->
  <g id="entity_0">
    <g transform="translate(140.0, 140.0)">
      <g transform="translate(26.790844958956583, 0.0)">
        <g transform="scale(3.282149219139777, 3.282149219139777)">
          <g transform="translate(-94.881887,-130.21929)">
            <g
                   id="g1824">
                  <path
                     style="fill:none;stroke:none;stroke-width:0.99781;stroke-linecap:round;stroke-linejoin:round"
                     d="M 94.915565,148.5 V 130.47807 H 105 115.08443 V 148.5 166.52193 H 105 94.915565 Z"
                     id="path1111" />
                  <g
                     id="g1700"
                     transform="translate(73.281554,-29.02709)">
                    <path
                       fill="#ffffff"
                       d="m 22.170036,195.27863 h 19.128105 c 0,0 0.679225,-20.76975 -9.81524,-20.76975 -10.494462,0 -9.312865,20.76975 -9.312865,20.76975 z"
                       fill-rule="evenodd"
                       id="path87"
                       style="fill:none;stroke-width:0.264583" />
                    <path
                       stroke="#000000"
                       stroke-width="1.05833"
                       stroke-miterlimit="400"
                       stroke-linecap="butt"
                       d="m 22.170036,195.27863 h 19.128105 c 0,0 0.679225,-20.76975 -9.81524,-20.76975 -10.494462,0 -9.312865,20.76975 -9.312865,20.76975 z"
                       fill-rule="evenodd"
                       id="path89"
                       style="fill:#ffffff" />
                    <path
                       fill="#ffffff"
                       d="m 22.900193,168.67867 c 0,-4.91706 3.880956,-8.90312 8.668367,-8.90312 2.298991,0 4.503822,0.938 6.129459,2.60766 1.625632,1.66966 2.538902,3.93421 2.538902,6.29546 0,4.91706 -3.880956,8.90313 -8.668361,8.90313 -4.787411,0 -8.668367,-3.98607 -8.668367,-8.90313 z"
                       fill-rule="evenodd"
                       id="path91"
                       style="fill:none;stroke-width:0.264583" />
                    <path
                       stroke="#000000"
                       stroke-width="1.05833"
                       stroke-miterlimit="400"
                       stroke-linecap="butt"
                       d="m 22.900193,168.67867 c 0,-4.91706 3.880956,-8.90312 8.668367,-8.90312 2.298991,0 4.503822,0.938 6.129459,2.60766 1.625632,1.66966 2.538902,3.93421 2.538902,6.29546 0,4.91706 -3.880956,8.90313 -8.668361,8.90313 -4.787411,0 -8.668367,-3.98607 -8.668367,-8.90313 z"
                       fill-rule="evenodd"
                       id="path93"
                       style="fill:#ffffff" />
                  </g>
                </g>
          </g>
        </g>
      </g>
    </g>
    <text x="200.0" y="268.0" font-size="14" font-family="sans-serif" text-anchor="middle" dominant-baseline="text-before-edge" fill="#000000" word-spacing="0" letter-spacing="0" style="white-space: pre-wrap; word-wrap: break-word;">ゲーム利用者</text>
  </g>
  <g id="entity_1">
    <g transform="translate(380.0, 380.0)">
      <g transform="translate(26.790844958956583, 0.0)">
        <g transform="scale(3.282149219139777, 3.282149219139777)">
          <g transform="translate(-94.881887,-130.21929)">
            <path
                   style="fill:none;stroke:none;stroke-width:0.99781;stroke-linecap:round;stroke-linejoin:round"
                   d="M 94.915565,148.5 V 130.47807 H 105 115.08443 V 148.5 166.52193 H 105 94.915565 Z"
                   id="path1111" />
                <g
                   id="g27996"
                   transform="translate(30.762363,-5.9084355)">
                  <path
                     stroke="#000000"
                     stroke-width="1.05833"
                     stroke-miterlimit="400"
                     stroke-linecap="butt"
                     d="m 64.820576,138.43423 c 0,-0.88072 0.713976,-1.59469 1.594686,-1.59469 h 15.644749 c 0.422939,0 0.828551,0.16801 1.127612,0.46707 0.299061,0.29906 0.467074,0.70468 0.467074,1.12762 v 31.9484 c 0,0.88072 -0.713973,1.59469 -1.594686,1.59469 H 66.415262 c -0.88071,0 -1.594686,-0.71397 -1.594686,-1.59469 z"
                     fill-rule="evenodd"
                     id="path97" />
                  <path
                     fill="#ffffff"
                     d="m 64.820576,138.43423 c 0,-0.88072 0.713976,-1.59469 1.594686,-1.59469 h 15.644749 c 0.422939,0 0.828551,0.16801 1.127612,0.46707 0.299061,0.29906 0.467074,0.70468 0.467074,1.12762 v 31.9484 c 0,0.88072 -0.713973,1.59469 -1.594686,1.59469 H 66.415262 c -0.88071,0 -1.594686,-0.71397 -1.594686,-1.59469 z"
                     fill-rule="evenodd"
                     id="path95"
                     style="stroke-width:0.264583" />
                  <path
                     stroke="#000000"
                     stroke-width="0.529167"
                     stroke-miterlimit="400"
                     stroke-linecap="butt"
                     d="m 66.976049,139.46192 h 14.811775 v 25.3869 H 66.976049 Z"
                     fill-rule="evenodd"
                     id="path101" />
                  <path
                     fill="#ffffff"
                     d="m 66.976049,139.46192 h 14.811775 v 25.3869 H 66.976049 Z"
                     fill-rule="evenodd"
                     id="path99"
                     style="stroke-width:0.264583" />
                  <path
                     stroke="#000000"
                     stroke-width="0.529167"
                     stroke-miterlimit="400"
                     stroke-linecap="butt"
                     d="m 72.538869,168.26383 c 0,-1.05612 0.832167,-1.91227 1.858687,-1.91227 0.492945,0 0.965721,0.20147 1.314294,0.56009 0.348557,0.35862 0.544396,0.84501 0.544396,1.35218 0,1.0561 -0.83217,1.91225 -1.85869,1.91225 -1.02652,0 -1.858687,-0.85615 -1.858687,-1.91225 z"
                     fill-rule="evenodd"
                     id="path105" />
                  <path
                     fill="#ffffff"
                     d="m 72.538869,168.26383 c 0,-1.05612 0.832167,-1.91227 1.858687,-1.91227 0.492945,0 0.965721,0.20147 1.314294,0.56009 0.348557,0.35862 0.544396,0.84501 0.544396,1.35218 0,1.0561 -0.83217,1.91225 -1.85869,1.91225 -1.02652,0 -1.858687,-0.85615 -1.858687,-1.91225 z"
                     fill-rule="evenodd"
                     id="path103"
                     style="stroke-width:0.264583" />
                </g>
          </g>
        </g>
      </g>
    </g>
    <text x="440.0" y="508.0" font-size="14" font-family="sans-serif" text-anchor="middle" dominant-baseline="text-before-edge" fill="#000000" word-spacing="0" letter-spacing="0" style="white-space: pre-wrap; word-wrap: break-word;">利用者のデバイス</text>
  </g>
  <g id="entity_2">
    <g transform="translate(620.0, 380.0)">
      <g transform="translate(26.790844958956583, 0.0)">
        <g transform="scale(3.282149219139777, 3.282149219139777)">
          <g transform="translate(-94.881887,-130.21929)">
            <g
                   id="g28630"
                   transform="translate(23.626088,12.613264)">
                  <g
                     id="g21284"
                     transform="matrix(0.26458333,0,0,0.26458333,-235.94929,79.862926)"
                     style="fill:#ffffff">
                    <path
                       fill="#000000"
                       fill-opacity="0"
                       d="m 1163.0956,145.36557 h 72.4724 v 132.75589 h -72.4724 z"
                       fill-rule="evenodd"
                       id="path37"
                       style="fill:#ffffff" />
                    <path
                       stroke="#000000"
                       stroke-width="4"
                       stroke-miterlimit="400"
                       stroke-linecap="butt"
                       d="m 1163.0956,145.36557 h 72.4724 v 132.75589 h -72.4724 z"
                       fill-rule="evenodd"
                       id="path39"
                       style="fill:#ffffff" />
                  </g>
                </g>
          </g>
        </g>
      </g>
    </g>
    <text x="680.0" y="508.0" font-size="14" font-family="sans-serif" text-anchor="middle" dominant-baseline="text-before-edge" fill="#000000" word-spacing="0" letter-spacing="0" style="white-space: pre-wrap; word-wrap: break-word;">ゲーム配布サイト</text>
  </g>
  <g id="entity_3">
    <g transform="translate(620.0, 620.0)">
      <g transform="translate(26.790844958956583, 0.0)">
        <g transform="scale(3.282149219139777, 3.282149219139777)">
          <g transform="translate(-94.881887,-130.21929)">
            <path
                   style="fill:none;stroke:none;stroke-width:0.99781;stroke-linecap:round;stroke-linejoin:round"
                   d="M 94.915565,148.5 V 130.47807 H 105 115.08443 V 148.5 166.52193 H 105 94.915565 Z"
                   id="path1111" />
                <g
                   id="g2207"
                   transform="translate(88.332917,-53.070036)">
                  <path
                     fill="#ffffff"
                     d="M 7.0795828,184.00753 H 26.254582 v 35.125 H 7.0795828 Z"
                     fill-rule="evenodd"
                     id="path413"
                     style="fill:#ffffff;stroke:#000000;stroke-width:0.264583" />
                  <path
                     stroke="#000000"
                     stroke-width="1.05833"
                     stroke-miterlimit="400"
                     stroke-linecap="butt"
                     d="M 7.0795828,184.00753 H 26.254582 v 35.125 H 7.0795828 Z"
                     fill-rule="evenodd"
                     id="path415"
                     style="fill:#ffffff;stroke:#000000" />
                  <path
                     fill="#ffffff"
                     d="m 10.339382,187.48545 h 5.050006 v 5.2 h -5.050006 z"
                     fill-rule="evenodd"
                     id="path417"
                     style="fill:#ffffff;stroke:#000000;stroke-width:0.264583" />
                  <path
                     stroke="#000000"
                     stroke-width="0.529167"
                     stroke-miterlimit="400"
                     stroke-linecap="butt"
                     d="m 10.339382,187.48545 h 5.050006 v 5.2 h -5.050006 z"
                     fill-rule="evenodd"
                     id="path419"
                     style="fill:#ffffff;stroke:#000000" />
                  <path
                     fill="#ffffff"
                     d="m 17.944247,187.48545 h 5.049999 v 5.2 h -5.049999 z"
                     fill-rule="evenodd"
                     id="path421"
                     style="fill:#ffffff;stroke:#000000;stroke-width:0.264583" />
                  <path
                     stroke="#000000"
                     stroke-width="0.529167"
                     stroke-miterlimit="400"
                     stroke-linecap="butt"
                     d="m 17.944247,187.48545 h 5.049999 v 5.2 h -5.049999 z"
                     fill-rule="evenodd"
                     id="path423"
                     style="fill:#ffffff;stroke:#000000" />
                  <path
                     fill="#ffffff"
                     d="m 10.339382,195.4355 h 5.050006 v 5.2 h -5.050006 z"
                     fill-rule="evenodd"
                     id="path425"
                     style="fill:#ffffff;stroke:#000000;stroke-width:0.264583" />
                  <path
                     stroke="#000000"
                     stroke-width="0.529167"
                     stroke-miterlimit="400"
                     stroke-linecap="butt"
                     d="m 10.339382,195.4355 h 5.050006 v 5.2 h -5.050006 z"
                     fill-rule="evenodd"
                     id="path427"
                     style="fill:#ffffff;stroke:#000000" />
                  <path
                     fill="#ffffff"
                     d="m 17.944247,195.4355 h 5.049999 v 5.2 h -5.049999 z"
                     fill-rule="evenodd"
                     id="path429"
                     style="fill:#ffffff;stroke:#000000;stroke-width:0.264583" />
                  <path
                     stroke="#000000"
                     stroke-width="0.529167"
                     stroke-miterlimit="400"
                     stroke-linecap="butt"
                     d="m 17.944247,195.4355 h 5.049999 v 5.2 h -5.049999 z"
                     fill-rule="evenodd"
                     id="path431"
                     style="fill:#ffffff;stroke:#000000" />
                  <path
                     fill="#ffffff"
                     d="m 10.339382,203.38556 h 5.050006 v 5.2 h -5.050006 z"
                     fill-rule="evenodd"
                     id="path433"
                     style="fill:#ffffff;stroke:#000000;stroke-width:0.264583" />
                  <path
                     stroke="#000000"
                     stroke-width="0.529167"
                     stroke-miterlimit="400"
                     stroke-linecap="butt"
                     d="m 10.339382,203.38556 h 5.050006 v 5.2 h -5.050006 z"
                     fill-rule="evenodd"
                     id="path435"
                     style="fill:#ffffff;stroke:#000000" />
                  <path
                     fill="#ffffff"
                     d="m 17.944247,203.38556 h 5.049999 v 5.2 h -5.049999 z"
                     fill-rule="evenodd"
                     id="path437"
                     style="fill:#ffffff;stroke:#000000;stroke-width:0.264583" />
                  <path
                     stroke="#000000"
                     stroke-width="0.529167"
                     stroke-miterlimit="400"
                     stroke-linecap="butt"
                     d="m 17.944247,203.38556 h 5.049999 v 5.2 h -5.049999 z"
                     fill-rule="evenodd"
                     id="path439"
                     style="fill:#ffffff;stroke:#000000" />
                  <path
                     fill="#000000"
                     fill-opacity="0"
                     d="M 11.908131,212.74378 H 21.4998 v 6.54166 h -9.591669 z"
                     fill-rule="evenodd"
                     id="path441"
                     style="fill:#ffffff;stroke:#000000;stroke-width:0.264583" />
                  <path
                     stroke="#000000"
                     stroke-width="0.529167"
                     stroke-miterlimit="400"
                     stroke-linecap="butt"
                     d="M 11.908131,212.74378 H 21.4998 v 6.54166 h -9.591669 z"
                     fill-rule="evenodd"
                     id="path443"
                     style="fill:#ffffff;stroke:#000000" />
                </g>
          </g>
        </g>
      </g>
    </g>
    <text x="680.0" y="748.0" font-size="14" font-family="sans-serif" text-anchor="middle" dominant-baseline="text-before-edge" fill="#000000" word-spacing="0" letter-spacing="0" style="white-space: pre-wrap; word-wrap: break-word;">(株)HOGEゲームズ</text>
  </g>
  <!-- Arrows -->
  <g id="arrow_4">
    <path d="M 260.0,200.0 L 320.0,200.0 L 440.0,200.0 L 560.0,200.0 L 680.0,200.0 L 680.0,320.0 L 680.0,380.0" stroke="#000000" stroke-width="3" fill="none" stroke-linejoin="round" marker-end="url(#marker_money)" />
    <text x="380.0" y="184.0" font-size="16" font-family="sans-serif" fill="#000000" text-anchor="middle" style="white-space: pre-wrap; word-wrap: break-word;">ゲーム購入</text>
    <rect x="366.0" y="186.0" rx="6" ry="6" width="28" height="28" fill="#fffc41" stroke="#000000" stroke-width="2" />
    <text x="380.0" y="205.0" font-size="16" font-family="sans-serif" font-weight="bold" fill="#000000" text-anchor="middle">￥</text>
  </g>
  <g id="arrow_5">
    <path d="M 620.0,440.0 L 560.0,440.0 L 500.0,440.0" stroke="#000000" stroke-width="3" fill="none" stroke-linejoin="round" marker-end="url(#marker_object)" />
    <text x="590.0" y="424.0" font-size="16" font-family="sans-serif" fill="#000000" text-anchor="middle" style="white-space: pre-wrap; word-wrap: break-word;">インストール</text>
    <circle cx="590.0" cy="440.0" r="14" fill="#d4fca9" stroke="#000000" stroke-width="2" />
  </g>
  <g id="arrow_6">
    <path d="M 200.0,295.0 L 200.0,320.0 L 200.0,440.0 L 320.0,440.0 L 380.0,440.0" stroke="#000000" stroke-width="3" fill="none" stroke-linejoin="round" marker-end="url(#marker_other)" />
    <text x="216.0" y="385.0" font-size="16" font-family="sans-serif" fill="#000000" text-anchor="start" style="white-space: pre-wrap; word-wrap: break-word;">プレイ</text>
  </g>
  <g id="arrow_7">
    <path d="M 692.5,620.0 L 692.5,560.0 L 692.5,535.0" stroke="#000000" stroke-width="3" fill="none" stroke-linejoin="round" marker-end="url(#marker_object)" />
    <text x="708.5" y="595.0" font-size="16" font-family="sans-serif" fill="#000000" text-anchor="start" style="white-space: pre-wrap; word-wrap: break-word;">作品アップロード</text>
    <circle cx="692.5" cy="590.0" r="14" fill="#d4fca9" stroke="#000000" stroke-width="2" />
  </g>
  <g id="arrow_8">
    <path d="M 667.5,535.0 L 667.5,560.0 L 667.5,620.0" stroke="#000000" stroke-width="3" fill="none" stroke-linejoin="round" marker-end="url(#marker_money)" />
    <text x="651.5" y="595.0" font-size="16" font-family="sans-serif" fill="#000000" text-anchor="end" style="white-space: pre-wrap; word-wrap: break-word;">売上</text>
    <rect x="653.5" y="576.0" rx="6" ry="6" width="28" height="28" fill="#fffc41" stroke="#000000" stroke-width="2" />
    <text x="667.5" y="595.0" font-size="16" font-family="sans-serif" font-weight="bold" fill="#000000" text-anchor="middle">￥</text>
  </g>
  <!-- Comments -->
  <g id="comment_9">
    <path d="M 695.0,310.0 H 887.0 Q 892.0,310.0 892.0,315.0 V 345.0 Q 892.0,350.0 887.0,350.0 H 726.0 L 700.0,371.0 L 710.0,350.0 H 695.0 Q 690.0,350.0 690.0,345.0 V 315.0 Q 690.0,310.0 695.0,310.0 Z" fill="#dddddd" stroke="none" />
    <text x="791.0" y="330.0" font-size="14" font-family="sans-serif" text-anchor="middle" dominant-baseline="middle" fill="#000000">Google Play的な</text>
  </g>
  </svg>
