<?xml version="1.0" encoding="UTF-8" standalone="no"?>
<!DOCTYPE svg PUBLIC "-//W3C//DTD SVG 1.1//EN"
 "http://www.w3.org/Graphics/SVG/1.1/DTD/svg11.dtd">
<!-- Generated by graphviz version 2.49.3 (20211023.0002)
 -->
<!-- Title: Bizgram Pages: 1 -->
<svg width="677pt" height="328pt"
 viewBox="0.00 0.00 676.50 328.00" xmlns="http://www.w3.org/2000/svg" xmlns:xlink="http://www.w3.org/1999/xlink">
<g id="graph0" class="graph" transform="scale(1 1) rotate(0) translate(4 324)">
<title>Bizgram</title>
<polygon fill="white" stroke="transparent" points="-4,4 -4,-324 672.5,-324 672.5,4 -4,4"/>
<text text-anchor="middle" x="334.25" y="-304.8" font-family="Times New Roman,serif" font-size="14.00">CRISP SALAD WORKS: https://bizgram.zukai.co/models/ivldryulmfg</text>
<!-- node_1 -->
<g id="node1" class="node">
<title>node_1</title>
<polygon fill="#ffe5cc" stroke="black" points="478.5,-297 306.5,-297 306.5,-261 478.5,-261 478.5,-297"/>
<text text-anchor="middle" x="392.5" y="-275.3" font-family="Times New Roman,serif" font-size="14.00">オフィス街で働く人</text>
</g>
<!-- node_4 -->
<g id="node3" class="node">
<title>node_4</title>
<polygon fill="#ffccff" stroke="black" points="375.5,-210 213.5,-210 213.5,-174 375.5,-174 375.5,-210"/>
<text text-anchor="middle" x="294.5" y="-188.3" font-family="Times New Roman,serif" font-size="14.00">CRISP SALAD WORKS</text>
</g>
<!-- node_1&#45;&gt;node_4 -->
<g id="edge1" class="edge">
<title>node_1&#45;&gt;node_4</title>
<path fill="none" stroke="red" d="M372.67,-260.8C358.06,-248.13 338,-230.73 321.87,-216.74"/>
<polygon fill="red" stroke="red" points="324.15,-214.08 314.3,-210.18 319.56,-219.37 324.15,-214.08"/>
<text text-anchor="middle" x="419.5" y="-231.8" font-family="Times New Roman,serif" font-size="14.00">デジタル注文/支払</text>
</g>
<!-- node_3 -->
<g id="node2" class="node">
<title>node_3</title>
<polygon fill="#e5e5e5" stroke="black" points="622,-123 381,-123 381,-87 622,-87 622,-123"/>
<text text-anchor="middle" x="501.5" y="-101.3" font-family="Times New Roman,serif" font-size="14.00">栄養満点で主食になるサラダ</text>
</g>
<!-- node_3&#45;&gt;node_1 -->
<g id="edge2" class="edge">
<title>node_3&#45;&gt;node_1</title>
<path fill="none" stroke="black" d="M506.19,-123.19C512.77,-151.33 521.15,-207.62 494.5,-243 491.05,-247.58 486.97,-251.56 482.45,-255.03"/>
<polygon fill="black" stroke="black" points="480.28,-252.27 473.89,-260.73 484.16,-258.1 480.28,-252.27"/>
<text text-anchor="middle" x="590.5" y="-188.3" font-family="Times New Roman,serif" font-size="14.00">短い待ち時間で提供</text>
</g>
<!-- node_4&#45;&gt;node_3 -->
<g id="edge3" class="edge">
<title>node_4&#45;&gt;node_3</title>
<path fill="none" stroke="black" d="M324.8,-173.94C343.87,-163.61 369.19,-150.61 392.5,-141 405.29,-135.72 419.18,-130.73 432.63,-126.25"/>
<polygon fill="black" stroke="black" points="433.91,-129.52 442.33,-123.09 431.73,-122.87 433.91,-129.52"/>
<text text-anchor="middle" x="444.5" y="-144.8" font-family="Times New Roman,serif" font-size="14.00">店舗で手作り</text>
</g>
<!-- node_5 -->
<g id="node4" class="node">
<title>node_5</title>
<polygon fill="#e5ccff" stroke="black" points="189,-123 0,-123 0,-87 189,-87 189,-123"/>
<text text-anchor="middle" x="94.5" y="-101.3" font-family="Times New Roman,serif" font-size="14.00">顧客の行動分析データ</text>
</g>
<!-- node_4&#45;&gt;node_5 -->
<g id="edge4" class="edge">
<title>node_4&#45;&gt;node_5</title>
<path fill="none" stroke="blue" d="M213.3,-188.87C157.92,-185.51 91.48,-177.05 73.5,-156 67.57,-149.06 69.15,-140.21 73.39,-131.88"/>
<polygon fill="blue" stroke="blue" points="76.49,-133.52 78.81,-123.18 70.55,-129.81 76.49,-133.52"/>
<text text-anchor="middle" x="117" y="-144.8" font-family="Times New Roman,serif" font-size="14.00">顧客データ</text>
</g>
<!-- node_7 -->
<g id="node5" class="node">
<title>node_7</title>
<polygon fill="#cce5ff" stroke="black" points="346.5,-123 220.5,-123 220.5,-87 346.5,-87 346.5,-123"/>
<text text-anchor="middle" x="283.5" y="-101.3" font-family="Times New Roman,serif" font-size="14.00">株式会社CRISP</text>
</g>
<!-- node_4&#45;&gt;node_7 -->
<g id="edge6" class="edge">
<title>node_4&#45;&gt;node_7</title>
<path fill="none" stroke="red" d="M283.62,-173.83C280.72,-168.35 277.98,-162.11 276.5,-156 274.73,-148.7 274.93,-140.69 275.98,-133.26"/>
<polygon fill="red" stroke="red" points="279.45,-133.76 277.91,-123.28 272.57,-132.44 279.45,-133.76"/>
<text text-anchor="middle" x="294" y="-144.8" font-family="Times New Roman,serif" font-size="14.00">売上</text>
</g>
<!-- node_5&#45;&gt;node_4 -->
<g id="edge5" class="edge">
<title>node_5&#45;&gt;node_4</title>
<path fill="none" stroke="blue" d="M129.02,-123.19C149.58,-133.2 176.31,-145.81 200.5,-156 212.15,-160.91 224.75,-165.84 236.83,-170.4"/>
<polygon fill="blue" stroke="blue" points="235.78,-173.75 246.37,-173.97 238.23,-167.19 235.78,-173.75"/>
<text text-anchor="middle" x="235.5" y="-144.8" font-family="Times New Roman,serif" font-size="14.00">運用改善</text>
</g>
<!-- node_7&#45;&gt;node_4 -->
<g id="edge7" class="edge">
<title>node_7&#45;&gt;node_4</title>
<path fill="none" stroke="red" d="M300.92,-123.09C305.22,-128.38 309.23,-134.54 311.5,-141 314.19,-148.66 312.98,-157.01 310.25,-164.65"/>
<polygon fill="red" stroke="red" points="307.03,-163.29 306.16,-173.85 313.42,-166.14 307.03,-163.29"/>
<text text-anchor="middle" x="330" y="-144.8" font-family="Times New Roman,serif" font-size="14.00">運営</text>
</g>
<!-- node_8 -->
<g id="node6" class="node">
<title>node_8</title>
<polygon fill="#ffe5cc" stroke="black" points="317.5,-36 249.5,-36 249.5,0 317.5,0 317.5,-36"/>
<text text-anchor="middle" x="283.5" y="-14.3" font-family="Times New Roman,serif" font-size="14.00">従業員</text>
</g>
<!-- node_7&#45;&gt;node_8 -->
<g id="edge8" class="edge">
<title>node_7&#45;&gt;node_8</title>
<path fill="none" stroke="red" d="M265.21,-86.66C257.65,-77.35 251.48,-65.45 255.5,-54 256.67,-50.67 258.3,-47.42 260.2,-44.32"/>
<polygon fill="red" stroke="red" points="263.12,-46.26 266.08,-36.09 257.42,-42.19 263.12,-46.26"/>
<text text-anchor="middle" x="273" y="-57.8" font-family="Times New Roman,serif" font-size="14.00">時給</text>
</g>
<!-- node_8&#45;&gt;node_7 -->
<g id="edge9" class="edge">
<title>node_8&#45;&gt;node_7</title>
<path fill="none" stroke="red" d="M287.92,-36.08C289.91,-45.73 291.59,-58.01 290.5,-69 290.25,-71.54 289.9,-74.16 289.49,-76.78"/>
<polygon fill="red" stroke="red" points="286.04,-76.19 287.67,-86.66 292.92,-77.45 286.04,-76.19"/>
<text text-anchor="middle" x="308" y="-57.8" font-family="Times New Roman,serif" font-size="14.00">勤務</text>
</g>
</g>
</svg>
