<?xml version="1.0" encoding="UTF-8" standalone="no"?>
<!DOCTYPE svg PUBLIC "-//W3C//DTD SVG 1.1//EN"
 "http://www.w3.org/Graphics/SVG/1.1/DTD/svg11.dtd">
<!-- Generated by graphviz version 2.49.3 (20211023.0002)
 -->
<!-- Title: Bizgram Pages: 1 -->
<svg width="619pt" height="314pt"
 viewBox="0.00 0.00 619.00 314.00" xmlns="http://www.w3.org/2000/svg" xmlns:xlink="http://www.w3.org/1999/xlink">
<g id="graph0" class="graph" transform="scale(1 1) rotate(0) translate(4 310)">
<title>Bizgram</title>
<polygon fill="white" stroke="transparent" points="-4,4 -4,-310 615,-310 615,4 -4,4"/>
<text text-anchor="middle" x="305.5" y="-290.8" font-family="Times New Roman,serif" font-size="14.00">スマートフォン販売ビジネスモデル</text>
<!-- node_0 -->
<g id="node1" class="node">
<title>node_0</title>
<polygon fill="#ffe5cc" stroke="black" points="317.5,-123 249.5,-123 249.5,-87 317.5,-87 317.5,-123"/>
<text text-anchor="middle" x="283.5" y="-101.3" font-family="Times New Roman,serif" font-size="14.00">消費者</text>
</g>
<!-- node_3 -->
<g id="node2" class="node">
<title>node_3</title>
<polygon fill="#cce5ff" stroke="black" points="466.5,-36 380.5,-36 380.5,0 466.5,0 466.5,-36"/>
<text text-anchor="middle" x="423.5" y="-14.3" font-family="Times New Roman,serif" font-size="14.00">小売事業</text>
</g>
<!-- node_0&#45;&gt;node_3 -->
<g id="edge3" class="edge">
<title>node_0&#45;&gt;node_3</title>
<path fill="none" stroke="red" d="M295.24,-86.71C303.25,-76.03 314.71,-62.74 327.5,-54 340.48,-45.13 355.97,-38.21 370.68,-32.95"/>
<polygon fill="red" stroke="red" points="371.85,-36.25 380.2,-29.73 369.61,-29.62 371.85,-36.25"/>
<text text-anchor="middle" x="362.5" y="-57.8" font-family="Times New Roman,serif" font-size="14.00">購入代金</text>
</g>
<!-- node_4 -->
<g id="node3" class="node">
<title>node_4</title>
<polygon fill="#cce5ff" stroke="black" points="153.5,-36 67.5,-36 67.5,0 153.5,0 153.5,-36"/>
<text text-anchor="middle" x="110.5" y="-14.3" font-family="Times New Roman,serif" font-size="14.00">通信事業</text>
</g>
<!-- node_0&#45;&gt;node_4 -->
<g id="edge4" class="edge">
<title>node_0&#45;&gt;node_4</title>
<path fill="none" stroke="red" d="M260.54,-86.86C241.79,-72.9 217.99,-55.29 215.5,-54 199.24,-45.58 180.54,-38.58 163.46,-33.1"/>
<polygon fill="red" stroke="red" points="164.21,-29.67 153.62,-30.06 162.14,-36.36 164.21,-29.67"/>
<text text-anchor="middle" x="271.5" y="-57.8" font-family="Times New Roman,serif" font-size="14.00">通信料金</text>
</g>
<!-- node_3&#45;&gt;node_0 -->
<g id="edge1" class="edge">
<title>node_3&#45;&gt;node_0</title>
<path fill="none" stroke="black" d="M419.91,-36.04C416.78,-46.89 411.18,-60.47 401.5,-69 381.16,-86.92 352,-95.68 327.75,-99.95"/>
<polygon fill="black" stroke="black" points="327.04,-96.52 317.7,-101.52 328.12,-103.43 327.04,-96.52"/>
<text text-anchor="middle" x="472" y="-57.8" font-family="Times New Roman,serif" font-size="14.00">スマートフォン</text>
</g>
<!-- node_4&#45;&gt;node_0 -->
<g id="edge2" class="edge">
<title>node_4&#45;&gt;node_0</title>
<path fill="none" stroke="black" d="M105.89,-36.16C104.12,-46.78 104.05,-60.06 111.5,-69 119.7,-78.83 191.25,-90.84 239.45,-97.93"/>
<polygon fill="black" stroke="black" points="238.95,-101.39 249.35,-99.36 239.95,-94.46 238.95,-101.39"/>
<text text-anchor="middle" x="163.5" y="-57.8" font-family="Times New Roman,serif" font-size="14.00">通信サービス</text>
</g>
<!-- node_6 -->
<g id="node4" class="node">
<title>node_6</title>
<polygon fill="#e5ffcc" stroke="black" points="250,-210 147,-210 147,-174 250,-174 250,-210"/>
<text text-anchor="middle" x="198.5" y="-188.3" font-family="Times New Roman,serif" font-size="14.00">通信事業者</text>
</g>
<!-- node_6&#45;&gt;node_0 -->
<g id="edge5" class="edge">
<title>node_6&#45;&gt;node_0</title>
<path fill="none" stroke="blue" d="M215.7,-173.8C228.14,-161.36 245.14,-144.36 259,-130.5"/>
<polygon fill="blue" stroke="blue" points="261.73,-132.72 266.32,-123.18 256.78,-127.77 261.73,-132.72"/>
<text text-anchor="middle" x="264" y="-144.8" font-family="Times New Roman,serif" font-size="14.00">広告</text>
</g>
<!-- comment_0 -->
<g id="node5" class="node">
<title>comment_0</title>
<path fill="#ffffcc" stroke="black" d="M376.5,-210C376.5,-210 280.5,-210 280.5,-210 274.5,-210 268.5,-204 268.5,-198 268.5,-198 268.5,-186 268.5,-186 268.5,-180 274.5,-174 280.5,-174 280.5,-174 376.5,-174 376.5,-174 382.5,-174 388.5,-180 388.5,-186 388.5,-186 388.5,-198 388.5,-198 388.5,-204 382.5,-210 376.5,-210"/>
<text text-anchor="middle" x="328.5" y="-188.3" font-family="Times New Roman,serif" font-size="14.00">最終ユーザー</text>
</g>
<!-- comment_0&#45;&gt;node_0 -->
<g id="edge6" class="edge">
<title>comment_0&#45;&gt;node_0</title>
<path fill="none" stroke="gray" stroke-dasharray="5,2" d="M319.39,-173.8C313.05,-161.82 304.47,-145.62 297.29,-132.06"/>
<polygon fill="gray" stroke="gray" points="300.37,-130.38 292.59,-123.18 294.18,-133.65 300.37,-130.38"/>
</g>
<!-- comment_1 -->
<g id="node6" class="node">
<title>comment_1</title>
<path fill="#ffffcc" stroke="black" d="M599,-123C599,-123 520,-123 520,-123 514,-123 508,-117 508,-111 508,-111 508,-99 508,-99 508,-93 514,-87 520,-87 520,-87 599,-87 599,-87 605,-87 611,-93 611,-99 611,-99 611,-111 611,-111 611,-117 605,-123 599,-123"/>
<text text-anchor="middle" x="559.5" y="-101.3" font-family="Times New Roman,serif" font-size="14.00">端末の販売</text>
</g>
<!-- comment_1&#45;&gt;node_3 -->
<g id="edge7" class="edge">
<title>comment_1&#45;&gt;node_3</title>
<path fill="none" stroke="gray" stroke-dasharray="5,2" d="M558.79,-86.59C557.45,-75.87 554.01,-62.57 545.5,-54 527.43,-35.81 500.57,-26.93 476.66,-22.64"/>
<polygon fill="gray" stroke="gray" points="477.04,-19.16 466.62,-21.08 475.96,-26.08 477.04,-19.16"/>
</g>
<!-- comment_2 -->
<g id="node7" class="node">
<title>comment_2</title>
<path fill="#ffffcc" stroke="black" d="M143,-123C143,-123 12,-123 12,-123 6,-123 0,-117 0,-111 0,-111 0,-99 0,-99 0,-93 6,-87 12,-87 12,-87 143,-87 143,-87 149,-87 155,-93 155,-99 155,-99 155,-111 155,-111 155,-117 149,-123 143,-123"/>
<text text-anchor="middle" x="77.5" y="-101.3" font-family="Times New Roman,serif" font-size="14.00">通信サービス提供</text>
</g>
<!-- comment_2&#45;&gt;node_4 -->
<g id="edge8" class="edge">
<title>comment_2&#45;&gt;node_4</title>
<path fill="none" stroke="gray" stroke-dasharray="5,2" d="M81.36,-86.56C83.77,-76.8 87.23,-64.53 91.5,-54 92.68,-51.08 94.05,-48.1 95.49,-45.16"/>
<polygon fill="gray" stroke="gray" points="98.71,-46.56 100.24,-36.07 92.5,-43.31 98.71,-46.56"/>
</g>
<!-- comment_3 -->
<g id="node8" class="node">
<title>comment_3</title>
<path fill="#ffffcc" stroke="black" d="M246.5,-283C246.5,-283 150.5,-283 150.5,-283 144.5,-283 138.5,-277 138.5,-271 138.5,-271 138.5,-259 138.5,-259 138.5,-253 144.5,-247 150.5,-247 150.5,-247 246.5,-247 246.5,-247 252.5,-247 258.5,-253 258.5,-259 258.5,-259 258.5,-271 258.5,-271 258.5,-277 252.5,-283 246.5,-283"/>
<text text-anchor="middle" x="198.5" y="-261.3" font-family="Times New Roman,serif" font-size="14.00">サポート体制</text>
</g>
<!-- comment_3&#45;&gt;node_6 -->
<g id="edge9" class="edge">
<title>comment_3&#45;&gt;node_6</title>
<path fill="none" stroke="gray" stroke-dasharray="5,2" d="M198.5,-246.81C198.5,-238.79 198.5,-229.05 198.5,-220.07"/>
<polygon fill="gray" stroke="gray" points="202,-220.03 198.5,-210.03 195,-220.03 202,-220.03"/>
</g>
</g>
</svg>
