<svg width="351pt" height="74pt" viewBox="0.00 0.00 351.00 74.00" xmlns="http://www.w3.org/2000/svg" xmlns:xlink="http://www.w3.org/1999/xlink">
<g id="graph0" class="graph" transform="scale(1 1) rotate(0) translate(4 70.46)">
<title>Bizgram</title>
<polygon fill="white" stroke="none" points="-4,4 -4,-70.46 347.12,-70.46 347.12,4 -4,4"/>
<text xml:space="preserve" text-anchor="middle" x="171.56" y="-49.86" font-family="Times,serif" font-size="14.00">オンライン書店のビジネスモデル</text>
<!-- node_0 -->
<g id="node1" class="node">
<title>node_0</title>
<polygon fill="#ffe5cc" stroke="black" points="186.12,-41.66 132.12,-41.66 132.12,-5.66 186.12,-5.66 186.12,-41.66"/>
<text xml:space="preserve" text-anchor="middle" x="159.12" y="-19.46" font-family="Times,serif" font-size="14.00">読者</text>
</g>
<!-- node_1 -->
<g id="node2" class="node">
<title>node_1</title>
<polygon fill="#cce5ff" stroke="black" points="343.12,-41.66 264.12,-41.66 264.12,-5.66 343.12,-5.66 343.12,-41.66"/>
<text xml:space="preserve" text-anchor="middle" x="303.62" y="-19.46" font-family="Times,serif" font-size="14.00">書籍販売事業</text>
</g>
<!-- node_0&#45;&gt;node_1 -->
<g id="edge1" class="edge">
<title>node_0-&gt;node_1</title>
<path fill="none" stroke="red" d="M186.59,-23.66C205.03,-23.66 230.2,-23.66 252.38,-23.66"/>
<polygon fill="red" stroke="red" points="252.14,-27.16 262.14,-23.66 252.14,-20.16 252.14,-27.16"/>
<text xml:space="preserve" text-anchor="middle" x="225.12" y="-27.86" font-family="Times,serif" font-size="14.00">書籍代金</text>
</g>
<!-- node_1&#45;&gt;node_0 -->
<g id="edge2" class="edge">
<title>node_1-&gt;node_0</title>
<path fill="none" stroke="black" d="M263.91,-7.39C258.04,-5.52 251.99,-3.91 246.12,-2.86 227.75,0.41 222.34,1.23 204.12,-2.86 201.81,-3.38 199.47,-4.04 197.14,-4.8"/>
<polygon fill="black" stroke="black" points="195.91,-1.52 187.85,-8.39 198.44,-8.05 195.91,-1.52"/>
<text xml:space="preserve" text-anchor="middle" x="225.12" y="-7.06" font-family="Times,serif" font-size="14.00">書籍</text>
</g>
<!-- node_2 -->
<g id="node3" class="node">
<title>node_2</title>
<polygon fill="#e5ffcc" stroke="black" points="79,-41.66 0,-41.66 0,-5.66 79,-5.66 79,-41.66"/>
<text xml:space="preserve" text-anchor="middle" x="39.5" y="-19.46" font-family="Times,serif" font-size="14.00">書店スタッフ</text>
</g>
<!-- node_2&#45;&gt;node_0 -->
<g id="edge3" class="edge">
<title>node_2-&gt;node_0</title>
<path fill="none" stroke="blue" d="M79.34,-23.66C92.56,-23.66 107.3,-23.66 120.43,-23.66"/>
<polygon fill="blue" stroke="blue" points="120.43,-27.16 130.43,-23.66 120.43,-20.16 120.43,-27.16"/>
<text xml:space="preserve" text-anchor="middle" x="105.56" y="-27.86" font-family="Times,serif" font-size="14.00">PR</text>
</g>
</g>
</svg>