<?xml version="1.0" encoding="UTF-8" standalone="no"?>
<!DOCTYPE svg PUBLIC "-//W3C//DTD SVG 1.1//EN"
 "http://www.w3.org/Graphics/SVG/1.1/DTD/svg11.dtd">
<!-- Generated by graphviz version 2.49.3 (20211023.0002)
 -->
<!-- Title: Bizgram Pages: 1 -->
<svg width="424pt" height="241pt"
 viewBox="0.00 0.00 423.65 241.00" xmlns="http://www.w3.org/2000/svg" xmlns:xlink="http://www.w3.org/1999/xlink">
<g id="graph0" class="graph" transform="scale(1 1) rotate(0) translate(4 237)">
<title>Bizgram</title>
<polygon fill="white" stroke="transparent" points="-4,4 -4,-237 419.65,-237 419.65,4 -4,4"/>
<text text-anchor="middle" x="207.82" y="-217.8" font-family="Times New Roman,serif" font-size="14.00">スマートフォン販売</text>
<!-- node_0 -->
<g id="node1" class="node">
<title>node_0</title>
<polygon fill="#ffe5cc" stroke="black" points="199.65,-123 131.65,-123 131.65,-87 199.65,-87 199.65,-123"/>
<text text-anchor="middle" x="165.65" y="-101.3" font-family="Times New Roman,serif" font-size="14.00">消費者</text>
</g>
<!-- node_3 -->
<g id="node2" class="node">
<title>node_3</title>
<polygon fill="#cce5ff" stroke="black" points="90.65,-36 4.65,-36 4.65,0 90.65,0 90.65,-36"/>
<text text-anchor="middle" x="47.65" y="-14.3" font-family="Times New Roman,serif" font-size="14.00">小売事業</text>
</g>
<!-- node_0&#45;&gt;node_3 -->
<g id="edge3" class="edge">
<title>node_0&#45;&gt;node_3</title>
<path fill="none" stroke="red" d="M131.64,-101.56C88.96,-97.7 19.42,-88.54 3.65,-69 -3.44,-60.21 1.28,-50.85 9.83,-42.64"/>
<polygon fill="red" stroke="red" points="12.3,-45.13 17.75,-36.04 7.82,-39.76 12.3,-45.13"/>
<text text-anchor="middle" x="38.65" y="-57.8" font-family="Times New Roman,serif" font-size="14.00">購入代金</text>
</g>
<!-- node_4 -->
<g id="node3" class="node">
<title>node_4</title>
<polygon fill="#cce5ff" stroke="black" points="326.65,-36 240.65,-36 240.65,0 326.65,0 326.65,-36"/>
<text text-anchor="middle" x="283.65" y="-14.3" font-family="Times New Roman,serif" font-size="14.00">通信事業</text>
</g>
<!-- node_0&#45;&gt;node_4 -->
<g id="edge4" class="edge">
<title>node_0&#45;&gt;node_4</title>
<path fill="none" stroke="red" d="M190.77,-86.83C198.79,-81.24 207.66,-74.94 215.65,-69 224.28,-62.58 226.05,-60.46 234.65,-54 239.86,-50.09 245.44,-46 250.9,-42.06"/>
<polygon fill="red" stroke="red" points="253.22,-44.71 259.31,-36.04 249.14,-39.02 253.22,-44.71"/>
<text text-anchor="middle" x="269.65" y="-57.8" font-family="Times New Roman,serif" font-size="14.00">通信料金</text>
</g>
<!-- node_3&#45;&gt;node_0 -->
<g id="edge1" class="edge">
<title>node_3&#45;&gt;node_0</title>
<path fill="none" stroke="black" d="M61.15,-36.24C69.91,-46.64 82.01,-59.64 94.65,-69 103.1,-75.26 112.85,-80.9 122.36,-85.74"/>
<polygon fill="black" stroke="black" points="120.83,-88.89 131.35,-90.13 123.9,-82.6 120.83,-88.89"/>
<text text-anchor="middle" x="155.15" y="-57.8" font-family="Times New Roman,serif" font-size="14.00">スマートフォン</text>
</g>
<!-- node_4&#45;&gt;node_0 -->
<g id="edge2" class="edge">
<title>node_4&#45;&gt;node_0</title>
<path fill="none" stroke="black" d="M301.52,-36.2C309.87,-46.34 316.44,-59.07 308.65,-69 296.5,-84.48 247.21,-94.01 209.86,-99.13"/>
<polygon fill="black" stroke="black" points="209.15,-95.7 199.69,-100.47 210.06,-102.64 209.15,-95.7"/>
<text text-anchor="middle" x="363.65" y="-57.8" font-family="Times New Roman,serif" font-size="14.00">通信サービス</text>
</g>
<!-- node_6 -->
<g id="node4" class="node">
<title>node_6</title>
<polygon fill="#e5ffcc" stroke="black" points="217.15,-210 114.15,-210 114.15,-174 217.15,-174 217.15,-210"/>
<text text-anchor="middle" x="165.65" y="-188.3" font-family="Times New Roman,serif" font-size="14.00">通信事業者</text>
</g>
<!-- node_6&#45;&gt;node_0 -->
<g id="edge5" class="edge">
<title>node_6&#45;&gt;node_0</title>
<path fill="none" stroke="blue" d="M165.65,-173.8C165.65,-162.16 165.65,-146.55 165.65,-133.24"/>
<polygon fill="blue" stroke="blue" points="169.15,-133.18 165.65,-123.18 162.15,-133.18 169.15,-133.18"/>
<text text-anchor="middle" x="183.15" y="-144.8" font-family="Times New Roman,serif" font-size="14.00">広告</text>
</g>
</g>
</svg>
