<?xml version="1.0" encoding="UTF-8" standalone="no"?>
<!DOCTYPE svg PUBLIC "-//W3C//DTD SVG 1.1//EN"
 "http://www.w3.org/Graphics/SVG/1.1/DTD/svg11.dtd">
<!-- Generated by graphviz version 2.49.3 (20211023.0002)
 -->
<!-- Title: Bizgram Pages: 1 -->
<svg width="529pt" height="439pt"
 viewBox="0.00 0.00 528.50 439.00" xmlns="http://www.w3.org/2000/svg" xmlns:xlink="http://www.w3.org/1999/xlink">
<g id="graph0" class="graph" transform="scale(1 1) rotate(0) translate(4 435)">
<title>Bizgram</title>
<polygon fill="white" stroke="transparent" points="-4,4 -4,-435 524.5,-435 524.5,4 -4,4"/>
<text text-anchor="middle" x="260.25" y="-415.8" font-family="Times New Roman,serif" font-size="14.00">オンライン書店のビジネスモデル（補足付き）</text>
<!-- node_1 -->
<g id="node1" class="node">
<title>node_1</title>
<ellipse fill="#ffffff" stroke="#ffe5cc" stroke-width="2.5" cx="374" cy="-237" rx="33.29" ry="18"/>
<text text-anchor="middle" x="374" y="-233.3" font-family="Times New Roman,serif" font-size="14.00">読者</text>
</g>
<!-- marker_0 -->
<g id="node4" class="node">
<title>marker_0</title>
<polygon fill="#fffc41" stroke="#000000" stroke-width="1.5" points="298,-182 264,-182 264,-153 298,-153 298,-182"/>
<text text-anchor="middle" x="281" y="-163.8" font-family="Times New Roman,serif" font-size="14.00">￥</text>
</g>
<!-- node_1&#45;&gt;marker_0 -->
<g id="edge1" class="edge">
<title>node_1&#45;&gt;marker_0</title>
<path fill="none" stroke="red" stroke-width="1.5" d="M354.73,-222.01C340.77,-211.88 321.74,-198.07 306.51,-187.02"/>
<polygon fill="red" stroke="red" stroke-width="1.5" points="308.2,-183.92 298.06,-180.88 304.09,-189.59 308.2,-183.92"/>
</g>
<!-- node_4 -->
<g id="node2" class="node">
<title>node_4</title>
<polygon fill="#ffffff" stroke="#cce5ff" stroke-width="2.5" points="344,-102 224,-102 224,-66 344,-66 344,-102"/>
<text text-anchor="middle" x="284" y="-80.3" font-family="Times New Roman,serif" font-size="14.00">書籍販売事業</text>
</g>
<!-- marker_1 -->
<g id="node5" class="node">
<title>marker_1</title>
<ellipse fill="#d4fca9" stroke="#000000" stroke-width="1.5" cx="284" cy="-14.5" rx="14.5" ry="14.5"/>
</g>
<!-- node_4&#45;&gt;marker_1 -->
<g id="edge3" class="edge">
<title>node_4&#45;&gt;marker_1</title>
<path fill="none" stroke="black" stroke-width="1.5" d="M284,-65.97C284,-57.86 284,-48.03 284,-39.21"/>
<polygon fill="black" stroke="black" stroke-width="1.5" points="287.5,-39.13 284,-29.13 280.5,-39.13 287.5,-39.13"/>
</g>
<!-- node_7 -->
<g id="node3" class="node">
<title>node_7</title>
<polygon fill="#ffffff" stroke="#e5ffcc" stroke-width="2.5" points="359,-408 239,-408 239,-372 359,-372 359,-408"/>
<text text-anchor="middle" x="299" y="-386.3" font-family="Times New Roman,serif" font-size="14.00">書店スタッフ</text>
</g>
<!-- marker_2 -->
<g id="node6" class="node">
<title>marker_2</title>
<polygon fill="#cbecfa" stroke="#000000" stroke-width="1.5" points="388.5,-335 359.5,-335 359.5,-306 388.5,-306 388.5,-335"/>
</g>
<!-- node_7&#45;&gt;marker_2 -->
<g id="edge5" class="edge">
<title>node_7&#45;&gt;marker_2</title>
<path fill="none" stroke="blue" stroke-width="1.5" d="M317.93,-371.97C328.16,-362.75 340.87,-351.32 351.59,-341.66"/>
<polygon fill="blue" stroke="blue" stroke-width="1.5" points="354.25,-343.99 359.34,-334.69 349.56,-338.78 354.25,-343.99"/>
</g>
<!-- marker_0&#45;&gt;node_4 -->
<g id="edge2" class="edge">
<title>marker_0&#45;&gt;node_4</title>
<path fill="none" stroke="red" stroke-width="1.5" d="M281.17,-152.66C281.31,-143.41 281.57,-130.97 282,-120 282.1,-117.45 282.22,-114.79 282.35,-112.13"/>
<polygon fill="red" stroke="red" stroke-width="1.5" points="285.85,-112.26 282.9,-102.08 278.86,-111.88 285.85,-112.26"/>
<text text-anchor="middle" x="317" y="-123.8" font-family="Times New Roman,serif" font-size="14.00">書籍代金</text>
</g>
<!-- marker_1&#45;&gt;node_1 -->
<g id="edge4" class="edge">
<title>marker_1&#45;&gt;node_1</title>
<path fill="none" stroke="black" stroke-width="1.5" d="M297.24,-21.13C313.37,-28.75 340.07,-43.98 353,-66 379.2,-110.62 379.49,-173.12 376.98,-208.58"/>
<polygon fill="black" stroke="black" stroke-width="1.5" points="373.48,-208.41 376.14,-218.67 380.46,-208.99 373.48,-208.41"/>
<text text-anchor="middle" x="391.5" y="-123.8" font-family="Times New Roman,serif" font-size="14.00">書籍</text>
</g>
<!-- marker_2&#45;&gt;node_1 -->
<g id="edge6" class="edge">
<title>marker_2&#45;&gt;node_1</title>
<path fill="none" stroke="blue" stroke-width="1.5" d="M374,-305.67C374,-294.64 374,-278.83 374,-265.27"/>
<polygon fill="blue" stroke="blue" stroke-width="1.5" points="377.5,-265.01 374,-255.01 370.5,-265.01 377.5,-265.01"/>
<text text-anchor="middle" x="383.5" y="-276.8" font-family="Times New Roman,serif" font-size="14.00">PR</text>
</g>
<!-- comment_0 -->
<g id="node7" class="node">
<title>comment_0</title>
<polygon fill="#dddddd" stroke="#000000" points="322.5,-255 133.5,-255 133.5,-219 322.5,-219 322.5,-255"/>
<text text-anchor="middle" x="228" y="-233.9" font-family="Times New Roman,serif" font-size="12.00">クレジット払いも対応</text>
</g>
<!-- comment_0&#45;&gt;marker_0 -->
<g id="edge7" class="edge">
<title>comment_0&#45;&gt;marker_0</title>
<path fill="none" stroke="#000000" stroke-dasharray="1,5" d="M241.37,-218.97C248.23,-210.24 256.65,-199.51 263.97,-190.19"/>
<polygon fill="#000000" stroke="#000000" points="266.88,-192.16 270.3,-182.13 261.37,-187.83 266.88,-192.16"/>
</g>
<!-- comment_1 -->
<g id="node8" class="node">
<title>comment_1</title>
<polygon fill="#dddddd" stroke="#000000" points="206,-102 0,-102 0,-66 206,-66 206,-102"/>
<text text-anchor="middle" x="103" y="-80.9" font-family="Times New Roman,serif" font-size="12.00">在庫あるものは即日配送</text>
</g>
<!-- comment_1&#45;&gt;marker_1 -->
<g id="edge8" class="edge">
<title>comment_1&#45;&gt;marker_1</title>
<path fill="none" stroke="#000000" stroke-dasharray="1,5" d="M148.67,-65.97C184.49,-52.61 232.84,-34.58 261,-24.08"/>
<polygon fill="#000000" stroke="#000000" points="262.25,-27.35 270.4,-20.57 259.8,-20.79 262.25,-27.35"/>
</g>
<!-- comment_2 -->
<g id="node9" class="node">
<title>comment_2</title>
<polygon fill="#dddddd" stroke="#000000" points="520.5,-408 377.5,-408 377.5,-372 520.5,-372 520.5,-408"/>
<text text-anchor="middle" x="449" y="-386.9" font-family="Times New Roman,serif" font-size="12.00">SNS・メール配信</text>
</g>
<!-- comment_2&#45;&gt;marker_2 -->
<g id="edge9" class="edge">
<title>comment_2&#45;&gt;marker_2</title>
<path fill="none" stroke="#000000" stroke-dasharray="1,5" d="M430.07,-371.97C419.84,-362.75 407.13,-351.32 396.41,-341.66"/>
<polygon fill="#000000" stroke="#000000" points="398.44,-338.78 388.66,-334.69 393.75,-343.99 398.44,-338.78"/>
</g>
</g>
</svg>
