<?xml version="1.0" encoding="UTF-8" standalone="no"?>
<!DOCTYPE svg PUBLIC "-//W3C//DTD SVG 1.1//EN"
 "http://www.w3.org/Graphics/SVG/1.1/DTD/svg11.dtd">
<!-- Generated by graphviz version 2.49.3 (20211023.0002)
 -->
<!-- Title: Bizgram Pages: 1 -->
<svg width="410pt" height="241pt"
 viewBox="0.00 0.00 409.50 241.00" xmlns="http://www.w3.org/2000/svg" xmlns:xlink="http://www.w3.org/1999/xlink">
<g id="graph0" class="graph" transform="scale(1 1) rotate(0) translate(4 237)">
<title>Bizgram</title>
<polygon fill="white" stroke="transparent" points="-4,4 -4,-237 405.5,-237 405.5,4 -4,4"/>
<text text-anchor="middle" x="200.75" y="-217.8" font-family="Times New Roman,serif" font-size="14.00">例）買い切り型のスマホゲーム</text>
<!-- node_1 -->
<g id="node1" class="node">
<title>node_1</title>
<polygon fill="#ffe5cc" stroke="black" points="132.5,-210 12.5,-210 12.5,-174 132.5,-174 132.5,-210"/>
<text text-anchor="middle" x="72.5" y="-188.3" font-family="Times New Roman,serif" font-size="14.00">ゲーム利用者</text>
</g>
<!-- node_4 -->
<g id="node2" class="node">
<title>node_4</title>
<polygon fill="#ffccff" stroke="black" points="155,-36 0,-36 0,0 155,0 155,-36"/>
<text text-anchor="middle" x="77.5" y="-14.3" font-family="Times New Roman,serif" font-size="14.00">利用者のデバイス</text>
</g>
<!-- node_1&#45;&gt;node_4 -->
<g id="edge3" class="edge">
<title>node_1&#45;&gt;node_4</title>
<path fill="none" stroke="black" d="M73,-173.88C73.87,-144 75.67,-82.11 76.71,-46.27"/>
<polygon fill="black" stroke="black" points="80.21,-46.15 77,-36.05 73.22,-45.95 80.21,-46.15"/>
<text text-anchor="middle" x="101.5" y="-101.3" font-family="Times New Roman,serif" font-size="14.00">プレイ</text>
</g>
<!-- node_5 -->
<g id="node3" class="node">
<title>node_5</title>
<polygon fill="#f0f0f0" stroke="black" points="293,-123 138,-123 138,-87 293,-87 293,-123"/>
<text text-anchor="middle" x="215.5" y="-101.3" font-family="Times New Roman,serif" font-size="14.00">ゲーム配布サイト</text>
</g>
<!-- node_1&#45;&gt;node_5 -->
<g id="edge1" class="edge">
<title>node_1&#45;&gt;node_5</title>
<path fill="none" stroke="red" d="M87.02,-173.89C96.76,-163.28 110.34,-150.01 124.5,-141 132.75,-135.75 141.91,-131.09 151.14,-127.02"/>
<polygon fill="red" stroke="red" points="152.51,-130.24 160.38,-123.15 149.8,-123.79 152.51,-130.24"/>
<text text-anchor="middle" x="168" y="-144.8" font-family="Times New Roman,serif" font-size="14.00">ゲーム購入</text>
</g>
<!-- node_5&#45;&gt;node_4 -->
<g id="edge2" class="edge">
<title>node_5&#45;&gt;node_4</title>
<path fill="none" stroke="black" d="M137.99,-87.02C126.71,-82.38 115.79,-76.48 106.5,-69 98.69,-62.71 92.56,-53.72 87.99,-45.09"/>
<polygon fill="black" stroke="black" points="91.12,-43.52 83.64,-36.02 84.81,-46.55 91.12,-43.52"/>
<text text-anchor="middle" x="158.5" y="-57.8" font-family="Times New Roman,serif" font-size="14.00">インストール</text>
</g>
<!-- node_7 -->
<g id="node4" class="node">
<title>node_7</title>
<polygon fill="#cce5ff" stroke="black" points="339,-36 188,-36 188,0 339,0 339,-36"/>
<text text-anchor="middle" x="263.5" y="-14.3" font-family="Times New Roman,serif" font-size="14.00">(株)HOGEゲームズ</text>
</g>
<!-- node_5&#45;&gt;node_7 -->
<g id="edge5" class="edge">
<title>node_5&#45;&gt;node_7</title>
<path fill="none" stroke="red" d="M213.14,-86.85C212.54,-76.74 213.23,-64 218.5,-54 220.52,-50.16 223.18,-46.6 226.18,-43.35"/>
<polygon fill="red" stroke="red" points="228.79,-45.71 233.71,-36.33 224.01,-40.59 228.79,-45.71"/>
<text text-anchor="middle" x="236" y="-57.8" font-family="Times New Roman,serif" font-size="14.00">売上</text>
</g>
<!-- node_7&#45;&gt;node_5 -->
<g id="edge4" class="edge">
<title>node_7&#45;&gt;node_5</title>
<path fill="none" stroke="black" d="M264.51,-36.16C264.39,-46.28 262.93,-59.01 257.5,-69 255.35,-72.95 252.56,-76.64 249.43,-80.03"/>
<polygon fill="black" stroke="black" points="247,-77.51 242.18,-86.95 251.83,-82.58 247,-77.51"/>
<text text-anchor="middle" x="332" y="-57.8" font-family="Times New Roman,serif" font-size="14.00">作品アップロード</text>
</g>
<!-- comment_9 -->
<g id="node5" class="node">
<title>comment_9</title>
<path fill="#ffffcc" stroke="black" d="M263.5,-210C263.5,-210 167.5,-210 167.5,-210 161.5,-210 155.5,-204 155.5,-198 155.5,-198 155.5,-186 155.5,-186 155.5,-180 161.5,-174 167.5,-174 167.5,-174 263.5,-174 263.5,-174 269.5,-174 275.5,-180 275.5,-186 275.5,-186 275.5,-198 275.5,-198 275.5,-204 269.5,-210 263.5,-210"/>
<text text-anchor="middle" x="215.5" y="-188.3" font-family="Times New Roman,serif" font-size="14.00">Google Play的な</text>
</g>
<!-- comment_9&#45;&gt;node_5 -->
<g id="edge6" class="edge">
<title>comment_9&#45;&gt;node_5</title>
<path fill="none" stroke="gray" stroke-dasharray="5,2" d="M215.5,-173.8C215.5,-162.16 215.5,-146.55 215.5,-133.24"/>
<polygon fill="gray" stroke="gray" points="219,-133.18 215.5,-123.18 212,-133.18 219,-133.18"/>
</g>
</g>
</svg>
