<?xml version="1.0" encoding="UTF-8" standalone="no"?>
<svg
   version="1.1"
   viewBox="0.0 0.0 1440.0 900.0"
   fill="none"
   stroke="none"
   stroke-linecap="square"
   stroke-miterlimit="10"
   id="svg587"
   sodipodi:docname="ビジネスモデル図解ツールキット配布版P3描画要素_部分抽出_矢印.svg"
   inkscape:version="1.1.1 (3bf5ae0d25, 2021-09-20)"
   xmlns:inkscape="http://www.inkscape.org/namespaces/inkscape"
   xmlns:sodipodi="http://sodipodi.sourceforge.net/DTD/sodipodi-0.dtd"
   xmlns="http://www.w3.org/2000/svg"
   xmlns:svg="http://www.w3.org/2000/svg">
  <defs
     id="defs591" />
  <sodipodi:namedview
     id="namedview589"
     pagecolor="#ffffff"
     bordercolor="#666666"
     borderopacity="1.0"
     inkscape:pageshadow="2"
     inkscape:pageopacity="0.0"
     inkscape:pagecheckerboard="0"
     showgrid="false"
     inkscape:zoom="0.59858553"
     inkscape:cx="32.576798"
     inkscape:cy="734.23091"
     inkscape:window-width="1920"
     inkscape:window-height="1009"
     inkscape:window-x="-8"
     inkscape:window-y="-8"
     inkscape:window-maximized="1"
     inkscape:current-layer="svg587" />
  <clipPath
     id="gf882835e6c_5_1.0">
    <path
       d="m0 0l1440.0 0l0 900.0l-1440.0 0l0 -900.0z"
       clip-rule="nonzero"
       id="path2" />
  </clipPath>
  <path
     fill="#000000"
     fill-opacity="0"
     d="M 376.78992,575.7768 H 176.75466 v 184.66583"
     fill-rule="evenodd"
     id="path31" />
  <g
     id="g32272">
    <path
       stroke="#000000"
       stroke-width="3"
       stroke-miterlimit="400"
       stroke-linecap="butt"
       d="M 366.5087,575.7768 H 176.75466 v 184.66577"
       fill-rule="evenodd"
       id="path33" />
    <path
       fill="#000000"
       stroke="#000000"
       stroke-width="3"
       stroke-linecap="butt"
       d="m 366.5087,575.7768 -3.37375,3.37372 9.26929,-3.37372 -9.26929,-3.37378 z"
       fill-rule="evenodd"
       id="path35" />
  </g>
  <path
     fill="#000000"
     fill-opacity="0"
     d="m 131.77658,664.5323 0.37225,184.164 200.64383,0.0256"
     fill-rule="evenodd"
     id="path147" />
  <g
     id="g32260">
    <path
       stroke="#000000"
       stroke-width="3"
       stroke-miterlimit="400"
       stroke-linecap="butt"
       d="m 131.79736,674.81354 0.35147,173.88275 200.64383,0.0256"
       fill-rule="evenodd"
       id="path149" />
    <path
       fill="#000000"
       stroke="#000000"
       stroke-width="3"
       stroke-linecap="butt"
       d="m 131.79736,674.81354 3.38057,3.36688 -3.39249,-9.26245 -3.35501,9.27612 z"
       fill-rule="evenodd"
       id="path151" />
  </g>
  <path
     fill="#000000"
     fill-opacity="0"
     d="m 668.8299,665.8824 -0.3645,183.93732 -196.47327,0.0255"
     fill-rule="evenodd"
     id="path157" />
  <g
     id="g32252">
    <path
       stroke="#000000"
       stroke-width="3"
       stroke-miterlimit="400"
       stroke-linecap="butt"
       d="m 668.8096,676.16364 -0.34418,173.656 -196.47327,0.0256"
       fill-rule="evenodd"
       id="path159" />
    <path
       fill="#000000"
       stroke="#000000"
       stroke-width="3"
       stroke-linecap="butt"
       d="m 668.8096,676.16364 3.36707,3.38043 -3.35541,-9.276 -3.39209,9.26264 z"
       fill-rule="evenodd"
       id="path161" />
  </g>
  <path
     fill="#000000"
     fill-opacity="0"
     d="M 427.1826,576.0525 H 627.21785 V 760.71833"
     fill-rule="evenodd"
     id="path163" />
  <g
     id="g32256">
    <path
       stroke="#000000"
       stroke-width="3"
       stroke-miterlimit="400"
       stroke-linecap="butt"
       d="m 437.46384,576.0525 h 189.754 v 184.66583"
       fill-rule="evenodd"
       id="path165" />
    <path
       fill="#000000"
       stroke="#000000"
       stroke-width="3"
       stroke-linecap="butt"
       d="m 437.46384,576.0525 3.37375,-3.37372 -9.26929,3.37372 9.26929,3.37378 z"
       fill-rule="evenodd"
       id="path167" />
  </g>
  <g
     id="g10224">
    <path
       fill="#000000"
       fill-opacity="0"
       d="M 724.2966,623.3258 H 848.76907"
       fill-rule="evenodd"
       id="path255" />
    <path
       stroke="#000000"
       stroke-width="3"
       stroke-miterlimit="400"
       stroke-linecap="butt"
       d="M 734.5778,623.3258 H 848.76902"
       fill-rule="evenodd"
       id="path257" />
    <path
       fill="#000000"
       stroke="#000000"
       stroke-width="3"
       stroke-linecap="butt"
       d="m 734.5778,623.3258 3.37378,-3.37378 -9.26929,3.37378 9.26929,3.37372 z"
       fill-rule="evenodd"
       id="path259" />
  </g>
  <g
     id="g10219">
    <path
       fill="#000000"
       fill-opacity="0"
       d="M 723.5407,576.02246 H 849.52495"
       fill-rule="evenodd"
       id="path261" />
    <path
       stroke="#000000"
       stroke-width="3"
       stroke-miterlimit="400"
       stroke-linecap="butt"
       d="m 733.82196,576.02246 h 115.703"
       fill-rule="evenodd"
       id="path263" />
    <path
       fill="#000000"
       stroke="#000000"
       stroke-width="3"
       stroke-linecap="butt"
       d="m 733.82196,576.02246 3.37372,-3.37372 -9.26929,3.37372 9.26929,3.37378 z"
       fill-rule="evenodd"
       id="path265" />
  </g>
  <path
     fill="#000000"
     fill-opacity="0"
     d="m 512.63086,606.21155 66.46466,-0.15222 -0.48114,212.22308 66.45294,-0.10236"
     fill-rule="evenodd"
     id="path511" />
  <g
     id="g32248">
    <path
       stroke="#000000"
       stroke-width="3"
       stroke-miterlimit="400"
       stroke-linecap="butt"
       d="m 522.9121,606.188 56.18335,-0.12866 -0.48114,212.22308 66.453,-0.10236"
       fill-rule="evenodd"
       id="path513" />
    <path
       fill="#000000"
       stroke="#000000"
       stroke-width="3"
       stroke-linecap="butt"
       d="m 522.9121,606.188 3.36603,-3.38147 -9.2616,3.39496 9.27704,3.35254 z"
       fill-rule="evenodd"
       id="path515" />
  </g>
  <path
     fill="#000000"
     fill-opacity="0"
     d="m 557.4991,818.1302 -66.4646,0.15222 0.48114,-212.22308 -66.45297,0.10236"
     fill-rule="evenodd"
     id="path517" />
  <g
     id="g32244">
    <path
       stroke="#000000"
       stroke-width="3"
       stroke-miterlimit="400"
       stroke-linecap="butt"
       d="m 547.21783,818.1537 -56.18335,0.12872 0.48114,-212.22308 -66.45297,0.10236"
       fill-rule="evenodd"
       id="path519" />
    <path
       fill="#000000"
       stroke="#000000"
       stroke-width="3"
       stroke-linecap="butt"
       d="m 547.2179,818.1537 -3.36603,3.38147 9.26154,-3.39496 -9.27698,-3.35248 z"
       fill-rule="evenodd"
       id="path521" />
  </g>
  <path
     fill="#000000"
     fill-opacity="0"
     d="m 289.89447,606.2118 -66.46461,-0.15222 0.48114,212.22308 -66.45296,-0.10236"
     fill-rule="evenodd"
     id="path523" />
  <g
     id="g32268">
    <path
       stroke="#000000"
       stroke-width="3"
       stroke-miterlimit="400"
       stroke-linecap="butt"
       d="m 279.61325,606.18823 -56.1834,-0.12866 0.48113,212.22308 -66.45294,-0.10236"
       fill-rule="evenodd"
       id="path525" />
    <path
       fill="#000000"
       stroke="#000000"
       stroke-width="3"
       stroke-linecap="butt"
       d="m 279.61325,606.18823 -3.38147,3.36603 9.27701,-3.35254 -9.26157,-3.39496 z"
       fill-rule="evenodd"
       id="path527" />
  </g>
  <path
     fill="#000000"
     fill-opacity="0"
     d="m 244.3513,818.1302 66.46462,0.15222 -0.48115,-212.22308 66.45297,0.10236"
     fill-rule="evenodd"
     id="path529" />
  <g
     id="g32264">
    <path
       stroke="#000000"
       stroke-width="3"
       stroke-miterlimit="400"
       stroke-linecap="butt"
       d="m 254.63252,818.1537 56.1834,0.12872 -0.48115,-212.22308 66.45294,0.10236"
       fill-rule="evenodd"
       id="path531" />
    <path
       fill="#000000"
       stroke="#000000"
       stroke-width="3"
       stroke-linecap="butt"
       d="m 254.63252,818.1537 3.38148,-3.36597 -9.27702,3.35248 9.26155,3.39496 z"
       fill-rule="evenodd"
       id="path533" />
  </g>
  <g
     id="g10063">
    <g
       id="g9984">
      <path
         fill="#000000"
         fill-opacity="0"
         d="M 130.22215,404.99557 H 262.66308"
         fill-rule="evenodd"
         id="path141" />
      <path
         stroke="#000000"
         stroke-width="3"
         stroke-miterlimit="400"
         stroke-linecap="butt"
         d="M 140.50342,404.99557 H 262.66309"
         fill-rule="evenodd"
         id="path143" />
      <path
         fill="#000000"
         stroke="#000000"
         stroke-width="3"
         stroke-linecap="butt"
         d="m 140.50342,404.99557 3.37375,-3.37375 -9.2693,3.37375 9.2693,3.37375 z"
         fill-rule="evenodd"
         id="path145" />
      <path
         fill="#000000"
         fill-opacity="0"
         d="M 421.1898,404.9938 H 288.33943"
         fill-rule="evenodd"
         id="path203" />
      <path
         stroke="#000000"
         stroke-width="3"
         stroke-miterlimit="400"
         stroke-linecap="butt"
         d="M 410.90854,404.9938 H 288.33942"
         fill-rule="evenodd"
         id="path205" />
      <path
         fill="#000000"
         stroke="#000000"
         stroke-width="3"
         stroke-linecap="butt"
         d="m 410.90854,404.9938 -3.37375,3.37375 9.26929,-3.37375 -9.26929,-3.37375 z"
         fill-rule="evenodd"
         id="path207" />
      <path
         fill="#d4fca9"
         d="m 182.42867,405.27075 c 0,-7.95813 6.27506,-14.40945 14.01575,-14.40945 3.71721,0 7.28216,1.51812 9.91063,4.22042 2.62846,2.70231 4.10511,6.36741 4.10511,10.18903 0,7.95813 -6.27507,14.40945 -14.01574,14.40945 -7.74069,0 -14.01575,-6.45132 -14.01575,-14.40945 z"
         fill-rule="evenodd"
         id="path459" />
      <path
         stroke="#000000"
         stroke-width="3"
         stroke-miterlimit="400"
         stroke-linecap="butt"
         d="m 182.42867,405.27075 c 0,-7.95813 6.27506,-14.40945 14.01575,-14.40945 3.71721,0 7.28216,1.51812 9.91063,4.22042 2.62846,2.70231 4.10511,6.36741 4.10511,10.18903 0,7.95813 -6.27507,14.40945 -14.01574,14.40945 -7.74069,0 -14.01575,-6.45132 -14.01575,-14.40945 z"
         fill-rule="evenodd"
         id="path461" />
      <path
         fill="#d4fca9"
         d="m 340.7468,405.27075 c 0,-7.95813 6.27506,-14.40945 14.01575,-14.40945 3.71719,0 7.28216,1.51812 9.91061,4.22042 2.62848,2.70231 4.10513,6.36741 4.10513,10.18903 0,7.95813 -6.27508,14.40945 -14.01574,14.40945 -7.74069,0 -14.01575,-6.45132 -14.01575,-14.40945 z"
         fill-rule="evenodd"
         id="path463" />
      <path
         stroke="#000000"
         stroke-width="3"
         stroke-miterlimit="400"
         stroke-linecap="butt"
         d="m 340.7468,405.27075 c 0,-7.95813 6.27506,-14.40945 14.01575,-14.40945 3.71719,0 7.28216,1.51812 9.91061,4.22042 2.62848,2.70231 4.10513,6.36741 4.10513,10.18903 0,7.95813 -6.27508,14.40945 -14.01574,14.40945 -7.74069,0 -14.01575,-6.45132 -14.01575,-14.40945 z"
         fill-rule="evenodd"
         id="path465" />
    </g>
    <text
       xml:space="preserve"
       style="font-style:normal;font-weight:normal;font-size:18.6667px;line-height:1.25;font-family:sans-serif;fill:#000000;fill-opacity:1;stroke:none"
       x="228.20514"
       y="392.14957"
       id="text2928"><tspan
         sodipodi:role="line"
         id="tspan2926"
         x="228.20514"
         y="392.14957"
         style="font-size:18.6667px">モノの流れ</tspan></text>
  </g>
  <g
     id="g10029">
    <g
       id="g10013">
      <g
         id="g8233">
        <path
           fill="#000000"
           fill-opacity="0"
           d="M 421.1898,515.67096 H 288.33943"
           fill-rule="evenodd"
           id="path67" />
        <path
           stroke="#000000"
           stroke-width="3"
           stroke-miterlimit="400"
           stroke-linecap="butt"
           d="M 410.90854,515.67096 H 288.33942"
           fill-rule="evenodd"
           id="path69" />
        <path
           fill="#000000"
           stroke="#000000"
           stroke-width="3"
           stroke-linecap="butt"
           d="m 410.90854,515.67096 -3.37375,3.37378 9.26929,-3.37378 -9.26929,-3.37372 z"
           fill-rule="evenodd"
           id="path71" />
        <path
           fill="#000000"
           fill-opacity="0"
           d="M 130.22215,515.4715 H 262.66308"
           fill-rule="evenodd"
           id="path73" />
        <path
           stroke="#000000"
           stroke-width="3"
           stroke-miterlimit="400"
           stroke-linecap="butt"
           d="M 140.50342,515.4715 H 262.66309"
           fill-rule="evenodd"
           id="path75" />
        <path
           fill="#000000"
           stroke="#000000"
           stroke-width="3"
           stroke-linecap="butt"
           d="m 140.50342,515.4715 3.37375,-3.37378 -9.2693,3.37378 9.2693,3.37378 z"
           fill-rule="evenodd"
           id="path77" />
        <path
           fill="#cbecfa"
           d="m 341.77167,502.46152 h 25.98425 v 25.98428 h -25.98425 z"
           fill-rule="evenodd"
           id="path387" />
        <path
           stroke="#000000"
           stroke-width="3"
           stroke-linejoin="round"
           stroke-linecap="butt"
           d="m 341.77167,502.46152 h 25.98425 v 25.98428 h -25.98425 z"
           fill-rule="evenodd"
           id="path389" />
        <path
           fill="#cbecfa"
           d="M 183.45145,502.46152 H 209.4357 V 528.4458 H 183.45145 Z"
           fill-rule="evenodd"
           id="path391" />
        <path
           stroke="#000000"
           stroke-width="3"
           stroke-linejoin="round"
           stroke-linecap="butt"
           d="M 183.45145,502.46152 H 209.4357 V 528.4458 H 183.45145 Z"
           fill-rule="evenodd"
           id="path393" />
      </g>
    </g>
    <text
       xml:space="preserve"
       style="font-style:normal;font-weight:normal;font-size:18.6667px;line-height:1.25;font-family:sans-serif;fill:#000000;fill-opacity:1;stroke:none"
       x="227.84483"
       y="505.45102"
       id="text2928-6-8"><tspan
         sodipodi:role="line"
         id="tspan2926-6-1"
         x="227.84483"
         y="505.45102"
         style="font-size:18.6667px">情報の流れ</tspan></text>
  </g>
  <g
     id="g10048">
    <text
       xml:space="preserve"
       style="font-style:normal;font-weight:normal;font-size:18.6667px;line-height:1.25;font-family:sans-serif;fill:#000000;fill-opacity:1;stroke:none"
       x="228.42313"
       y="450.74084"
       id="text2928-6"><tspan
         sodipodi:role="line"
         id="tspan2926-6"
         x="228.42313"
         y="450.74084"
         style="font-size:18.6667px">カネの流れ</tspan></text>
    <g
       id="g10000">
      <path
         fill="#000000"
         fill-opacity="0"
         d="M 421.1898,460.42163 H 288.33943"
         fill-rule="evenodd"
         id="path61" />
      <path
         stroke="#000000"
         stroke-width="3"
         stroke-miterlimit="400"
         stroke-linecap="butt"
         d="M 410.90854,460.42163 H 288.33942"
         fill-rule="evenodd"
         id="path63" />
      <path
         fill="#000000"
         stroke="#000000"
         stroke-width="3"
         stroke-linecap="butt"
         d="m 410.90854,460.42163 -3.37375,3.37375 9.26929,-3.37375 -9.26929,-3.37375 z"
         fill-rule="evenodd"
         id="path65" />
      <path
         fill="#000000"
         fill-opacity="0"
         d="M 130.22215,460.33514 H 262.66308"
         fill-rule="evenodd"
         id="path79" />
      <path
         stroke="#000000"
         stroke-width="3"
         stroke-miterlimit="400"
         stroke-linecap="butt"
         d="M 140.50342,460.33514 H 262.66309"
         fill-rule="evenodd"
         id="path81" />
      <path
         fill="#000000"
         stroke="#000000"
         stroke-width="3"
         stroke-linecap="butt"
         d="m 140.50342,460.33514 3.37375,-3.37375 -9.2693,3.37375 9.2693,3.37375 z"
         fill-rule="evenodd"
         id="path83" />
      <path
         fill="#fffc41"
         d="m 340.74802,453.0502 c 0,-3.5282 2.8602,-6.38837 6.3884,-6.38837 h 15.25473 c 1.6943,0 3.31921,0.67307 4.51727,1.8711 1.19806,1.19806 1.87112,2.82296 1.87112,4.51727 v 16.04215 c 0,3.52819 -2.86019,6.38836 -6.38839,6.38836 h -15.25473 c -3.5282,0 -6.3884,-2.86017 -6.3884,-6.38836 z"
         fill-rule="evenodd"
         id="path221" />
      <path
         stroke="#000000"
         stroke-width="3"
         stroke-miterlimit="400"
         stroke-linecap="butt"
         d="m 340.74802,453.0502 c 0,-3.5282 2.8602,-6.38837 6.3884,-6.38837 h 15.25473 c 1.6943,0 3.31921,0.67307 4.51727,1.8711 1.19806,1.19806 1.87112,2.82296 1.87112,4.51727 v 16.04215 c 0,3.52819 -2.86019,6.38836 -6.38839,6.38836 h -15.25473 c -3.5282,0 -6.3884,-2.86017 -6.3884,-6.38836 z"
         fill-rule="evenodd"
         id="path223" />
      <path
         fill="#fffc41"
         d="m 182.42783,453.0502 c 0,-3.5282 2.86017,-6.38837 6.38837,-6.38837 h 15.25474 c 1.69431,0 3.31922,0.67307 4.51728,1.8711 1.19804,1.19806 1.8711,2.82296 1.8711,4.51727 v 16.04215 c 0,3.52819 -2.86018,6.38836 -6.38838,6.38836 H 188.8162 c -3.5282,0 -6.38837,-2.86017 -6.38837,-6.38836 z"
         fill-rule="evenodd"
         id="path395" />
      <path
         stroke="#000000"
         stroke-width="3"
         stroke-miterlimit="400"
         stroke-linecap="butt"
         d="m 182.42783,453.0502 c 0,-3.5282 2.86017,-6.38837 6.38837,-6.38837 h 15.25474 c 1.69431,0 3.31922,0.67307 4.51728,1.8711 1.19804,1.19806 1.8711,2.82296 1.8711,4.51727 v 16.04215 c 0,3.52819 -2.86018,6.38836 -6.38838,6.38836 H 188.8162 c -3.5282,0 -6.38837,-2.86017 -6.38837,-6.38836 z"
         fill-rule="evenodd"
         id="path397" />
      <text
         xml:space="preserve"
         style="font-style:normal;font-weight:normal;font-size:18.6667px;line-height:1.25;font-family:sans-serif;fill:#000000;fill-opacity:1;stroke:none"
         x="190.42322"
         y="467.62665"
         id="text2928-6-8-5"><tspan
           sodipodi:role="line"
           id="tspan2926-6-1-3"
           x="190.42322"
           y="467.62665"
           style="font-size:18.6667px">￥</tspan></text>
      <text
         xml:space="preserve"
         style="font-style:normal;font-weight:normal;font-size:18.6667px;line-height:1.25;font-family:sans-serif;fill:#000000;fill-opacity:1;stroke:none"
         x="348.64191"
         y="467.83728"
         id="text2928-6-8-5-5"><tspan
           sodipodi:role="line"
           id="tspan2926-6-1-3-9"
           x="348.64191"
           y="467.83728"
           style="font-size:18.6667px">￥</tspan></text>
    </g>
  </g>
  <g
     id="g9972">
    <g
       id="g9899">
      <path
         fill="#000000"
         fill-opacity="0"
         d="m 487.1536,421.11548 v 94.23621"
         fill-rule="evenodd"
         id="path375" />
      <path
         stroke="#000000"
         stroke-width="3"
         stroke-miterlimit="400"
         stroke-linecap="butt"
         d="m 487.1536,431.39673 v 83.95496"
         fill-rule="evenodd"
         id="path377" />
      <path
         fill="#000000"
         stroke="#000000"
         stroke-width="3"
         stroke-linecap="butt"
         d="m 487.1536,431.39676 3.37375,3.37375 -3.37375,-9.26932 -3.37375,9.26932 z"
         fill-rule="evenodd"
         id="path379" />
      <path
         fill="#000000"
         fill-opacity="0"
         d="M 528.4476,517.66406 V 421.91601"
         fill-rule="evenodd"
         id="path381" />
      <path
         stroke="#000000"
         stroke-width="3"
         stroke-miterlimit="400"
         stroke-linecap="butt"
         d="M 528.4476,507.38278 V 421.91601"
         fill-rule="evenodd"
         id="path383" />
      <path
         fill="#000000"
         stroke="#000000"
         stroke-width="3"
         stroke-linecap="butt"
         d="m 528.4476,507.38278 -3.37378,-3.37375 3.37378,9.26929 3.37372,-9.26929 z"
         fill-rule="evenodd"
         id="path385" />
      <path
         fill="#fffc41"
         d="m 473.14435,458.21515 c 0,-3.5282 2.86017,-6.38837 6.3884,-6.38837 h 15.25473 c 1.6943,0 3.31921,0.67304 4.51727,1.8711 1.19806,1.19806 1.87109,2.82296 1.87109,4.51727 v 16.04215 c 0,3.52819 -2.86016,6.38836 -6.38836,6.38836 h -15.25473 c -3.52823,0 -6.3884,-2.86017 -6.3884,-6.38836 z"
         fill-rule="evenodd"
         id="path401" />
      <path
         stroke="#000000"
         stroke-width="3"
         stroke-miterlimit="400"
         stroke-linecap="butt"
         d="m 473.14435,458.21515 c 0,-3.5282 2.86017,-6.38837 6.3884,-6.38837 h 15.25473 c 1.6943,0 3.31921,0.67304 4.51727,1.8711 1.19806,1.19806 1.87109,2.82296 1.87109,4.51727 v 16.04215 c 0,3.52819 -2.86016,6.38836 -6.38836,6.38836 h -15.25473 c -3.52823,0 -6.3884,-2.86017 -6.3884,-6.38836 z"
         fill-rule="evenodd"
         id="path403" />
      <path
         fill="#fffc41"
         d="m 514.4244,458.21515 c 0,-3.5282 2.86017,-6.38837 6.38837,-6.38837 h 15.25476 c 1.69427,0 3.31921,0.67304 4.51727,1.8711 1.19806,1.19806 1.87109,2.82296 1.87109,4.51727 v 16.04215 c 0,3.52819 -2.86016,6.38836 -6.38836,6.38836 h -15.25476 c -3.5282,0 -6.38837,-2.86017 -6.38837,-6.38836 z"
         fill-rule="evenodd"
         id="path407" />
      <path
         stroke="#000000"
         stroke-width="3"
         stroke-miterlimit="400"
         stroke-linecap="butt"
         d="m 514.4244,458.21515 c 0,-3.5282 2.86017,-6.38837 6.38837,-6.38837 h 15.25476 c 1.69427,0 3.31921,0.67304 4.51727,1.8711 1.19806,1.19806 1.87109,2.82296 1.87109,4.51727 v 16.04215 c 0,3.52819 -2.86016,6.38836 -6.38836,6.38836 h -15.25476 c -3.5282,0 -6.38837,-2.86017 -6.38837,-6.38836 z"
         fill-rule="evenodd"
         id="path409" />
      <text
         xml:space="preserve"
         style="font-style:normal;font-weight:normal;font-size:18.6667px;line-height:1.25;font-family:sans-serif;fill:#000000;fill-opacity:1;stroke:none"
         x="481.0694"
         y="472.51181"
         id="text2928-6-8-5-7"><tspan
           sodipodi:role="line"
           id="tspan2926-6-1-3-3"
           x="481.0694"
           y="472.51181"
           style="font-size:18.6667px">￥</tspan></text>
      <text
         xml:space="preserve"
         style="font-style:normal;font-weight:normal;font-size:18.6667px;line-height:1.25;font-family:sans-serif;fill:#000000;fill-opacity:1;stroke:none"
         x="522.5625"
         y="473.03522"
         id="text2928-6-8-5-2"><tspan
           sodipodi:role="line"
           id="tspan2926-6-1-3-1"
           x="522.5625"
           y="473.03522"
           style="font-size:18.6667px">￥</tspan></text>
    </g>
    <text
       xml:space="preserve"
       style="font-style:normal;font-weight:normal;font-size:18.6667px;line-height:1.25;font-family:sans-serif;fill:#000000;fill-opacity:1;stroke:none"
       x="460.55966"
       y="393.73608"
       id="text2928-4"><tspan
         sodipodi:role="line"
         id="tspan2926-8"
         x="460.55966"
         y="393.73608"
         style="font-size:18.6667px">モノの流れ</tspan></text>
  </g>
  <g
     id="g9953">
    <g
       id="g9911">
      <path
         fill="#000000"
         fill-opacity="0"
         d="m 627.92126,421.11548 v 94.23621"
         fill-rule="evenodd"
         id="path209" />
      <path
         stroke="#000000"
         stroke-width="3"
         stroke-miterlimit="400"
         stroke-linecap="butt"
         d="m 627.92126,431.39673 v 83.95496"
         fill-rule="evenodd"
         id="path211" />
      <path
         fill="#000000"
         stroke="#000000"
         stroke-width="3"
         stroke-linecap="butt"
         d="m 627.92126,431.39676 3.37372,3.37375 -3.37372,-9.26932 -3.37378,9.26932 z"
         fill-rule="evenodd"
         id="path213" />
      <path
         fill="#000000"
         fill-opacity="0"
         d="M 669.2152,517.66406 V 421.91601"
         fill-rule="evenodd"
         id="path215" />
      <path
         stroke="#000000"
         stroke-width="3"
         stroke-miterlimit="400"
         stroke-linecap="butt"
         d="M 669.2152,507.38278 V 421.91601"
         fill-rule="evenodd"
         id="path217" />
      <path
         fill="#000000"
         stroke="#000000"
         stroke-width="3"
         stroke-linecap="butt"
         d="m 669.2152,507.38278 -3.37372,-3.37375 3.37372,9.26929 3.37378,-9.26929 z"
         fill-rule="evenodd"
         id="path219" />
      <path
         fill="#d4fca9"
         d="m 613.6113,466.43948 c 0,-7.95813 6.27509,-14.40945 14.01575,-14.40945 3.71722,0 7.28216,1.51812 9.91064,4.22042 2.62848,2.70231 4.1051,6.36741 4.1051,10.18903 0,7.9581 -6.27502,14.40942 -14.01574,14.40942 -7.74066,0 -14.01575,-6.45132 -14.01575,-14.40942 z"
         fill-rule="evenodd"
         id="path227" />
      <path
         stroke="#000000"
         stroke-width="3"
         stroke-miterlimit="400"
         stroke-linecap="butt"
         d="m 613.6113,466.43948 c 0,-7.95813 6.27509,-14.40945 14.01575,-14.40945 3.71722,0 7.28216,1.51812 9.91064,4.22042 2.62848,2.70231 4.1051,6.36741 4.1051,10.18903 0,7.9581 -6.27502,14.40942 -14.01574,14.40942 -7.74066,0 -14.01575,-6.45132 -14.01575,-14.40942 z"
         fill-rule="evenodd"
         id="path229" />
      <path
         fill="#d4fca9"
         d="m 655.1712,466.43948 c 0,-7.95813 6.27509,-14.40945 14.01575,-14.40945 3.71722,0 7.28216,1.51812 9.91064,4.22042 2.62848,2.70231 4.1051,6.36741 4.1051,10.18903 0,7.9581 -6.27502,14.40942 -14.01574,14.40942 -7.74066,0 -14.01575,-6.45132 -14.01575,-14.40942 z"
         fill-rule="evenodd"
         id="path231" />
      <path
         stroke="#000000"
         stroke-width="3"
         stroke-miterlimit="400"
         stroke-linecap="butt"
         d="m 655.1712,466.43948 c 0,-7.95813 6.27509,-14.40945 14.01575,-14.40945 3.71722,0 7.28216,1.51812 9.91064,4.22042 2.62848,2.70231 4.1051,6.36741 4.1051,10.18903 0,7.9581 -6.27502,14.40942 -14.01574,14.40942 -7.74066,0 -14.01575,-6.45132 -14.01575,-14.40942 z"
         fill-rule="evenodd"
         id="path233" />
    </g>
    <text
       xml:space="preserve"
       style="font-style:normal;font-weight:normal;font-size:18.6667px;line-height:1.25;font-family:sans-serif;fill:#000000;fill-opacity:1;stroke:none"
       x="600.02728"
       y="394.53799"
       id="text2928-6-0"><tspan
         sodipodi:role="line"
         id="tspan2926-6-9"
         x="600.02728"
         y="394.53799"
         style="font-size:18.6667px">カネの流れ</tspan></text>
  </g>
  <g
     id="g9938">
    <g
       id="g9923">
      <path
         fill="#000000"
         fill-opacity="0"
         d="m 766.6589,421.11548 v 94.23621"
         fill-rule="evenodd"
         id="path45" />
      <path
         stroke="#000000"
         stroke-width="3"
         stroke-miterlimit="400"
         stroke-linecap="butt"
         d="m 766.6589,431.39673 v 83.95496"
         fill-rule="evenodd"
         id="path47" />
      <path
         fill="#000000"
         stroke="#000000"
         stroke-width="3"
         stroke-linecap="butt"
         d="m 766.6589,431.39676 3.37378,3.37375 -3.37378,-9.26932 -3.37378,9.26932 z"
         fill-rule="evenodd"
         id="path49" />
      <path
         fill="#000000"
         fill-opacity="0"
         d="M 807.9528,517.66406 V 421.91601"
         fill-rule="evenodd"
         id="path51" />
      <path
         stroke="#000000"
         stroke-width="3"
         stroke-miterlimit="400"
         stroke-linecap="butt"
         d="M 807.9528,507.38278 V 421.91601"
         fill-rule="evenodd"
         id="path53" />
      <path
         fill="#000000"
         stroke="#000000"
         stroke-width="3"
         stroke-linecap="butt"
         d="m 807.9528,507.38278 -3.37372,-3.37375 3.37372,9.26929 3.37378,-9.26929 z"
         fill-rule="evenodd"
         id="path55" />
      <path
         fill="#cbecfa"
         d="m 794.98425,453.60187 h 25.98425 v 25.98425 h -25.98425 z"
         fill-rule="evenodd"
         id="path467" />
      <path
         stroke="#000000"
         stroke-width="3"
         stroke-linejoin="round"
         stroke-linecap="butt"
         d="m 794.98425,453.60187 h 25.98425 v 25.98425 h -25.98425 z"
         fill-rule="evenodd"
         id="path469" />
      <path
         fill="#cbecfa"
         d="m 754.34644,453.60187 h 25.98425 v 25.98425 h -25.98425 z"
         fill-rule="evenodd"
         id="path471" />
      <path
         stroke="#000000"
         stroke-width="3"
         stroke-linejoin="round"
         stroke-linecap="butt"
         d="m 754.34644,453.60187 h 25.98425 v 25.98425 h -25.98425 z"
         fill-rule="evenodd"
         id="path473" />
    </g>
    <text
       xml:space="preserve"
       style="font-style:normal;font-weight:normal;font-size:18.6667px;line-height:1.25;font-family:sans-serif;fill:#000000;fill-opacity:1;stroke:none"
       x="743.85376"
       y="394.53796"
       id="text2928-6-8-7"><tspan
         sodipodi:role="line"
         id="tspan2926-6-1-1"
         x="743.85376"
         y="394.53796"
         style="font-size:18.6667px">情報の流れ</tspan></text>
  </g>
  <g
     id="g32240">
    <text
       xml:space="preserve"
       style="font-style:normal;font-weight:normal;font-size:18.6667px;line-height:1.25;font-family:sans-serif;fill:#000000;fill-opacity:1;stroke:none"
       x="747.59576"
       y="665.73615"
       id="text11702"><tspan
         sodipodi:role="line"
         id="tspan11700"
         x="747.59576"
         y="665.73615"
         style="font-size:18.6667px">従属関係</tspan></text>
    <g
       id="g32213">
      <path
         stroke="#000000"
         stroke-width="1"
         stroke-linejoin="round"
         stroke-linecap="butt"
         stroke-dasharray="4, 3"
         d="M 706.3723,700.4371 H 867.2542 V 848.72061 H 706.3723 Z"
         fill-rule="evenodd"
         id="path59" />
      <path
         fill="#000000"
         fill-opacity="0"
         d="m 706.34393,800.43854 h 160.8819 v 28.81891 h -160.8819 z"
         fill-rule="evenodd"
         id="path293" />
      <path
         fill="#000000"
         fill-opacity="0"
         d="m 784.0181,673.5333 v 24.15747"
         fill-rule="evenodd"
         id="path305" />
      <path
         stroke="#000000"
         stroke-width="1"
         stroke-miterlimit="400"
         stroke-linecap="butt"
         stroke-dasharray="4, 3"
         d="m 784.0181,673.5333 v 24.15747"
         fill-rule="evenodd"
         id="path307" />
      <text
         xml:space="preserve"
         style="font-style:normal;font-weight:normal;font-size:18.6667px;line-height:1.25;font-family:sans-serif;fill:#000000;fill-opacity:1;stroke:none"
         x="722.53668"
         y="806.90222"
         id="text13092"><tspan
           sodipodi:role="line"
           id="tspan13090"
           x="722.53668"
           y="806.90222"
           style="font-size:18.6667px">BはAに属して</tspan><tspan
           sodipodi:role="line"
           x="722.53668"
           y="831.58044"
           style="font-size:18.6667px"
           id="tspan19220">いることを現す</tspan></text>
      <g
         id="g32189">
        <g
           id="g32161">
          <path
             fill="#000000"
             fill-opacity="0"
             d="m 768.4617,748.0412 h 39.93701"
             fill-rule="evenodd"
             id="path271" />
          <path
             stroke="#000000"
             stroke-width="2"
             stroke-miterlimit="400"
             stroke-linecap="butt"
             d="m 768.4617,748.0412 h 32.35706"
             fill-rule="evenodd"
             id="path273" />
          <path
             fill="#000000"
             stroke="#000000"
             stroke-width="2"
             stroke-linecap="butt"
             d="m 807.3987,748.0412 c 0,1.81702 -1.47296,3.28998 -3.28998,3.28998 -1.81701,0 -3.28998,-1.47296 -3.28998,-3.28998 0,-1.81702 1.47297,-3.29004 3.28998,-3.29004 1.81702,0 3.28998,1.47302 3.28998,3.29004 z"
             fill-rule="nonzero"
             id="path275" />
        </g>
        <g
           id="g32173">
          <path
             stroke="#000000"
             stroke-width="2"
             stroke-miterlimit="400"
             stroke-linecap="butt"
             d="m 721.43036,715.6078 h 34.96063 v 64.03149 h -34.96063 z"
             fill-rule="evenodd"
             id="path279" />
          <path
             fill="#000000"
             fill-opacity="0"
             d="m 721.60394,734.3285 h 34.96063 v 28.81891 h -34.96063 z"
             fill-rule="evenodd"
             id="path285" />
          <text
             xml:space="preserve"
             style="font-style:normal;font-weight:normal;font-size:18.6667px;line-height:1.25;font-family:sans-serif;fill:#000000;fill-opacity:1;stroke:none"
             x="734.23096"
             y="754.2782"
             id="text22632"><tspan
               sodipodi:role="line"
               id="tspan22630"
               x="734.23096"
               y="754.2782"
               style="font-size:18.6667px">A</tspan></text>
        </g>
        <g
           id="g32167">
          <path
             stroke="#000000"
             stroke-width="2"
             stroke-miterlimit="400"
             stroke-linecap="butt"
             d="m 818.29254,715.6078 h 34.96063 v 64.03149 h -34.96063 z"
             fill-rule="evenodd"
             id="path283" />
          <path
             fill="#000000"
             fill-opacity="0"
             d="m 820.2968,734.3285 h 34.96063 v 28.81891 H 820.2968 Z"
             fill-rule="evenodd"
             id="path289" />
          <text
             xml:space="preserve"
             style="font-style:normal;font-weight:normal;font-size:18.6667px;line-height:1.25;font-family:sans-serif;fill:#000000;fill-opacity:1;stroke:none"
             x="829.12598"
             y="753.94873"
             id="text23494"><tspan
               sodipodi:role="line"
               id="tspan23492"
               x="829.12598"
               y="753.94873"
               style="font-size:18.6667px">B</tspan></text>
        </g>
      </g>
    </g>
  </g>
</svg>
