<?xml version="1.0" encoding="UTF-8" standalone="no"?>
<!-- Created with Inkscape (http://www.inkscape.org/) -->

<svg
   width="20.236225mm"
   height="36.561409mm"
   viewBox="0 0 20.236225 36.561409"
   version="1.1"
   id="svg1393"
   inkscape:version="1.1.1 (3bf5ae0d25, 2021-09-20)"
   sodipodi:docname="entity_person.svg"
   xmlns:inkscape="http://www.inkscape.org/namespaces/inkscape"
   xmlns:sodipodi="http://sodipodi.sourceforge.net/DTD/sodipodi-0.dtd"
   xmlns="http://www.w3.org/2000/svg"
   xmlns:svg="http://www.w3.org/2000/svg">
  <sodipodi:namedview
     id="namedview1395"
     pagecolor="#ffffff"
     bordercolor="#666666"
     borderopacity="1.0"
     inkscape:pageshadow="2"
     inkscape:pageopacity="0.0"
     inkscape:pagecheckerboard="0"
     inkscape:document-units="mm"
     showgrid="false"
     fit-margin-top="0"
     fit-margin-left="0"
     fit-margin-right="0"
     fit-margin-bottom="0"
     inkscape:zoom="4.1524865"
     inkscape:cx="78.507178"
     inkscape:cy="64.178414"
     inkscape:window-width="1920"
     inkscape:window-height="1009"
     inkscape:window-x="-8"
     inkscape:window-y="-8"
     inkscape:window-maximized="1"
     inkscape:current-layer="layer1" />
  <defs
     id="defs1390" />
  <g
     inkscape:label="Layer 1"
     inkscape:groupmode="layer"
     id="layer1"
     transform="translate(-94.881887,-130.21929)">
    <g
       id="g1824">
      <path
         style="fill:none;stroke:none;stroke-width:0.99781;stroke-linecap:round;stroke-linejoin:round"
         d="m 94.915565,148.5 c 0,-6.00731 0,-12.01462 0,-18.02193 6.722955,0 13.445915,0 20.168865,0 0,12.01462 0,24.02924 0,36.04386 -6.72296,0 -13.44591,0 -20.168865,0 0,-6.00731 0,-12.01462 0,-18.02193 z"
         id="path1111" />
      <g
         id="g1700"
         transform="translate(73.281554,-29.02709)">
        <path
           fill="#ffffff"
           d="m 22.170036,195.27863 c 6.376035,0 12.75207,0 19.128105,0 0.009,-5.18337 -0.461037,-10.52001 -2.572408,-15.31274 -1.170961,-2.66522 -3.450038,-5.20042 -6.523201,-5.42332 -2.684159,-0.34692 -5.333964,1.13132 -6.728544,3.39601 -2.461705,3.8971 -3.020617,8.62941 -3.289591,13.13698 -0.06179,1.3999 -0.07776,2.80295 -0.01436,4.20307 z"
           fill-rule="evenodd"
           id="path87"
           style="fill:none;stroke-width:0.264583" />
        <path
           stroke="#000000"
           stroke-width="1.05833"
           stroke-miterlimit="400"
           stroke-linecap="butt"
           d="m 22.170036,195.27863 c 6.376035,0 12.75207,0 19.128105,0 0.009,-5.18337 -0.461037,-10.52001 -2.572408,-15.31274 -1.170961,-2.66522 -3.450038,-5.20042 -6.523201,-5.42332 -2.684159,-0.34692 -5.333964,1.13132 -6.728544,3.39601 -2.461705,3.8971 -3.020617,8.62941 -3.289591,13.13698 -0.06179,1.3999 -0.07776,2.80295 -0.01436,4.20307 z"
           fill-rule="evenodd"
           id="path89"
           style="fill:#ffffff" />
        <path
           fill="#ffffff"
           d="m 22.900193,168.67867 c -0.09892,-4.27293 3.279402,-8.34743 7.564334,-8.83159 4.046633,-0.60963 8.173278,2.14369 9.333689,6.0351 1.397729,4.06303 -0.566885,8.96842 -4.471562,10.82167 -3.541716,1.83979 -8.234398,0.68507 -10.57762,-2.5285 -1.20168,-1.56215 -1.855249,-3.52725 -1.848841,-5.49668 z"
           fill-rule="evenodd"
           id="path91"
           style="fill:none;stroke-width:0.264583" />
        <path
           stroke="#000000"
           stroke-width="1.05833"
           stroke-miterlimit="400"
           stroke-linecap="butt"
           d="m 22.900193,168.67867 c -0.09892,-4.27293 3.279402,-8.34743 7.564334,-8.83159 4.046633,-0.60963 8.173278,2.14369 9.333689,6.0351 1.397729,4.06303 -0.566885,8.96842 -4.471562,10.82167 -3.541716,1.83979 -8.234398,0.68507 -10.57762,-2.5285 -1.20168,-1.56215 -1.855249,-3.52725 -1.848841,-5.49668 z"
           fill-rule="evenodd"
           id="path93"
           style="fill:#ffffff" />
      </g>
    </g>
  </g>
</svg>
