<?xml version="1.0" encoding="UTF-8" standalone="no"?>
<!-- Created with Inkscape (http://www.inkscape.org/) -->

<svg
   width="20.236225mm"
   height="36.561409mm"
   viewBox="0 0 20.236225 36.561409"
   version="1.1"
   id="svg1393"
   inkscape:version="1.1.1 (3bf5ae0d25, 2021-09-20)"
   sodipodi:docname="entity_smaryphone.svg"
   xmlns:inkscape="http://www.inkscape.org/namespaces/inkscape"
   xmlns:sodipodi="http://sodipodi.sourceforge.net/DTD/sodipodi-0.dtd"
   xmlns="http://www.w3.org/2000/svg"
   xmlns:svg="http://www.w3.org/2000/svg">
  <sodipodi:namedview
     id="namedview1395"
     pagecolor="#ffffff"
     bordercolor="#666666"
     borderopacity="1.0"
     inkscape:pageshadow="2"
     inkscape:pageopacity="0.0"
     inkscape:pagecheckerboard="0"
     inkscape:document-units="mm"
     showgrid="false"
     fit-margin-top="0"
     fit-margin-left="0"
     fit-margin-right="0"
     fit-margin-bottom="0"
     inkscape:zoom="1.0381216"
     inkscape:cx="29.861626"
     inkscape:cy="108.85044"
     inkscape:window-width="1228"
     inkscape:window-height="660"
     inkscape:window-x="761"
     inkscape:window-y="106"
     inkscape:window-maximized="0"
     inkscape:current-layer="layer1" />
  <defs
     id="defs1390" />
  <g
     inkscape:label="Layer 1"
     inkscape:groupmode="layer"
     id="layer1"
     transform="translate(-94.881887,-130.21929)">
    <path
       style="fill:none;stroke:none;stroke-width:0.99781;stroke-linecap:round;stroke-linejoin:round"
       d="M 94.915565,148.5 V 130.47807 H 105 115.08443 V 148.5 166.52193 H 105 94.915565 Z"
       id="path1111" />
    <g
       id="g27996"
       transform="translate(30.762363,-5.9084355)">
      <path
         stroke="#000000"
         stroke-width="1.05833"
         stroke-miterlimit="400"
         stroke-linecap="butt"
         d="m 64.820576,138.43423 c 0,-0.88072 0.713976,-1.59469 1.594686,-1.59469 h 15.644749 c 0.422939,0 0.828551,0.16801 1.127612,0.46707 0.299061,0.29906 0.467074,0.70468 0.467074,1.12762 v 31.9484 c 0,0.88072 -0.713973,1.59469 -1.594686,1.59469 H 66.415262 c -0.88071,0 -1.594686,-0.71397 -1.594686,-1.59469 z"
         fill-rule="evenodd"
         id="path97" />
      <path
         fill="#ffffff"
         d="m 64.820576,138.43423 c 0,-0.88072 0.713976,-1.59469 1.594686,-1.59469 h 15.644749 c 0.422939,0 0.828551,0.16801 1.127612,0.46707 0.299061,0.29906 0.467074,0.70468 0.467074,1.12762 v 31.9484 c 0,0.88072 -0.713973,1.59469 -1.594686,1.59469 H 66.415262 c -0.88071,0 -1.594686,-0.71397 -1.594686,-1.59469 z"
         fill-rule="evenodd"
         id="path95"
         style="stroke-width:0.264583" />
      <path
         stroke="#000000"
         stroke-width="0.529167"
         stroke-miterlimit="400"
         stroke-linecap="butt"
         d="m 66.976049,139.46192 h 14.811775 v 25.3869 H 66.976049 Z"
         fill-rule="evenodd"
         id="path101" />
      <path
         fill="#ffffff"
         d="m 66.976049,139.46192 h 14.811775 v 25.3869 H 66.976049 Z"
         fill-rule="evenodd"
         id="path99"
         style="stroke-width:0.264583" />
      <path
         stroke="#000000"
         stroke-width="0.529167"
         stroke-miterlimit="400"
         stroke-linecap="butt"
         d="m 72.538869,168.26383 c 0,-1.05612 0.832167,-1.91227 1.858687,-1.91227 0.492945,0 0.965721,0.20147 1.314294,0.56009 0.348557,0.35862 0.544396,0.84501 0.544396,1.35218 0,1.0561 -0.83217,1.91225 -1.85869,1.91225 -1.02652,0 -1.858687,-0.85615 -1.858687,-1.91225 z"
         fill-rule="evenodd"
         id="path105" />
      <path
         fill="#ffffff"
         d="m 72.538869,168.26383 c 0,-1.05612 0.832167,-1.91227 1.858687,-1.91227 0.492945,0 0.965721,0.20147 1.314294,0.56009 0.348557,0.35862 0.544396,0.84501 0.544396,1.35218 0,1.0561 -0.83217,1.91225 -1.85869,1.91225 -1.02652,0 -1.858687,-0.85615 -1.858687,-1.91225 z"
         fill-rule="evenodd"
         id="path103"
         style="stroke-width:0.264583" />
    </g>
  </g>
</svg>
