<?xml version="1.0" encoding="UTF-8" standalone="no"?>
<!-- Generated by graphviz version 2.49.3 (20211023.0002)
 -->

<!-- Title: Bizgram Pages: 1 -->

<svg
   width="409.5pt"
   height="241.00002pt"
   viewBox="0 0 409.00061 241.00002"
   version="1.1"
   id="svg96"
   sodipodi:docname="game_graphiz.svg"
   inkscape:version="1.1.1 (3bf5ae0d25, 2021-09-20)"
   xmlns:inkscape="http://www.inkscape.org/namespaces/inkscape"
   xmlns:sodipodi="http://sodipodi.sourceforge.net/DTD/sodipodi-0.dtd"
   xmlns="http://www.w3.org/2000/svg"
   xmlns:svg="http://www.w3.org/2000/svg">
  <defs
     id="defs100" />
  <sodipodi:namedview
     id="namedview98"
     pagecolor="#ffffff"
     bordercolor="#666666"
     borderopacity="1.0"
     inkscape:pageshadow="2"
     inkscape:pageopacity="0.0"
     inkscape:pagecheckerboard="0"
     inkscape:document-units="pt"
     showgrid="false"
     fit-margin-top="0"
     fit-margin-left="0"
     fit-margin-right="0"
     fit-margin-bottom="0"
     inkscape:zoom="1.114939"
     inkscape:cx="227.36669"
     inkscape:cy="152.92316"
     inkscape:window-width="1920"
     inkscape:window-height="1009"
     inkscape:window-x="-8"
     inkscape:window-y="-8"
     inkscape:window-maximized="1"
     inkscape:current-layer="svg96" />
  <g
     id="graph0"
     class="graph"
     transform="translate(3.7499989,237)">
    <title
       id="title2">Bizgram</title>
    <polygon
       fill="#ffffff"
       stroke="transparent"
       points="405.5,-237 405.5,4 -4,4 -4,-237 "
       id="polygon4" />
    <text
       text-anchor="middle"
       x="200.75"
       y="-217.8"
       font-family="'Times New Roman', serif"
       font-size="14px"
       id="text6">例）買い切り型のスマホゲーム</text>
    <!-- node_1 -->
    <g
       id="node1"
       class="node">
      <title
         id="title8">node_1</title>
      <polygon
         fill="#ffe5cc"
         stroke="#000000"
         points="12.5,-174 132.5,-174 132.5,-210 12.5,-210 "
         id="polygon10" />
      <text
         text-anchor="middle"
         x="72.5"
         y="-188.3"
         font-family="'Times New Roman', serif"
         font-size="14px"
         id="text12">ゲーム利用者</text>
    </g>
    <!-- node_4 -->
    <g
       id="node2"
       class="node">
      <title
         id="title15">node_4</title>
      <polygon
         fill="#ffccff"
         stroke="#000000"
         points="0,0 155,0 155,-36 0,-36 "
         id="polygon17" />
      <text
         text-anchor="middle"
         x="77.5"
         y="-14.3"
         font-family="'Times New Roman', serif"
         font-size="14px"
         id="text19">利用者のデバイス</text>
    </g>
    <!-- node_1&#45;&gt;node_4 -->
    <g
       id="edge3"
       class="edge">
      <title
         id="title22">node_1-&gt;node_4</title>
      <path
         fill="none"
         stroke="#000000"
         d="m 73,-173.88 c 0.87,29.88 2.67,91.77 3.71,127.61"
         id="path24" />
      <polygon
         fill="#000000"
         stroke="#000000"
         points="73.22,-45.95 80.21,-46.15 77,-36.05 "
         id="polygon26" />
      <text
         text-anchor="middle"
         x="101.5"
         y="-101.3"
         font-family="'Times New Roman', serif"
         font-size="14px"
         id="text28">プレイ</text>
    </g>
    <!-- node_5 -->
    <g
       id="node3"
       class="node">
      <title
         id="title31">node_5</title>
      <polygon
         fill="#f0f0f0"
         stroke="#000000"
         points="138,-87 293,-87 293,-123 138,-123 "
         id="polygon33" />
      <text
         text-anchor="middle"
         x="215.5"
         y="-101.3"
         font-family="'Times New Roman', serif"
         font-size="14px"
         id="text35">ゲーム配布サイト</text>
    </g>
    <!-- node_1&#45;&gt;node_5 -->
    <g
       id="edge1"
       class="edge">
      <title
         id="title38">node_1-&gt;node_5</title>
      <path
         fill="none"
         stroke="#ff0000"
         d="m 87.02,-173.89 c 9.74,10.61 23.32,23.88 37.48,32.89 8.25,5.25 17.41,9.91 26.64,13.98"
         id="path40" />
      <polygon
         fill="#ff0000"
         stroke="#ff0000"
         points="149.8,-123.79 152.51,-130.24 160.38,-123.15 "
         id="polygon42" />
      <text
         text-anchor="middle"
         x="168"
         y="-144.8"
         font-family="'Times New Roman', serif"
         font-size="14px"
         id="text44">ゲーム購入</text>
    </g>
    <!-- node_5&#45;&gt;node_4 -->
    <g
       id="edge2"
       class="edge">
      <title
         id="title47">node_5-&gt;node_4</title>
      <path
         fill="none"
         stroke="#000000"
         d="m 137.99,-87.02 c -11.28,4.64 -22.2,10.54 -31.49,18.02 -7.81,6.29 -13.94,15.28 -18.51,23.91"
         id="path49" />
      <polygon
         fill="#000000"
         stroke="#000000"
         points="84.81,-46.55 91.12,-43.52 83.64,-36.02 "
         id="polygon51" />
      <text
         text-anchor="middle"
         x="158.5"
         y="-57.799999"
         font-family="'Times New Roman', serif"
         font-size="14px"
         id="text53">インストール</text>
    </g>
    <!-- node_7 -->
    <g
       id="node4"
       class="node">
      <title
         id="title56">node_7</title>
      <polygon
         fill="#cce5ff"
         stroke="#000000"
         points="188,0 339,0 339,-36 188,-36 "
         id="polygon58" />
      <text
         text-anchor="middle"
         x="263.5"
         y="-14.3"
         font-family="'Times New Roman', serif"
         font-size="14px"
         id="text60">(株)HOGEゲームズ</text>
    </g>
    <!-- node_5&#45;&gt;node_7 -->
    <g
       id="edge5"
       class="edge">
      <title
         id="title63">node_5-&gt;node_7</title>
      <path
         fill="none"
         stroke="#ff0000"
         d="m 213.14,-86.85 c -0.6,10.11 0.09,22.85 5.36,32.85 2.02,3.84 4.68,7.4 7.68,10.65"
         id="path65" />
      <polygon
         fill="#ff0000"
         stroke="#ff0000"
         points="224.01,-40.59 228.79,-45.71 233.71,-36.33 "
         id="polygon67" />
      <text
         text-anchor="middle"
         x="236"
         y="-57.799999"
         font-family="'Times New Roman', serif"
         font-size="14px"
         id="text69">売上</text>
    </g>
    <!-- node_7&#45;&gt;node_5 -->
    <g
       id="edge4"
       class="edge">
      <title
         id="title72">node_7-&gt;node_5</title>
      <path
         fill="none"
         stroke="#000000"
         d="m 264.51,-36.16 c -0.12,-10.12 -1.58,-22.85 -7.01,-32.84 -2.15,-3.95 -4.94,-7.64 -8.07,-11.03"
         id="path74" />
      <polygon
         fill="#000000"
         stroke="#000000"
         points="251.83,-82.58 247,-77.51 242.18,-86.95 "
         id="polygon76" />
      <text
         text-anchor="middle"
         x="332"
         y="-57.799999"
         font-family="'Times New Roman', serif"
         font-size="14px"
         id="text78">作品アップロード</text>
    </g>
    <!-- comment_0 -->
    <g
       id="node5"
       class="node">
      <title
         id="title81">comment_0</title>
      <path
         fill="#ffffcc"
         stroke="#000000"
         d="m 263.5,-210 c 0,0 -96,0 -96,0 -6,0 -12,6 -12,12 0,0 0,12 0,12 0,6 6,12 12,12 0,0 96,0 96,0 6,0 12,-6 12,-12 0,0 0,-12 0,-12 0,-6 -6,-12 -12,-12"
         id="path83" />
      <text
         text-anchor="middle"
         x="215.5"
         y="-188.3"
         font-family="'Times New Roman', serif"
         font-size="14px"
         id="text85">Google Play的な</text>
    </g>
    <!-- comment_0&#45;&gt;node_5 -->
    <g
       id="edge6"
       class="edge">
      <title
         id="title88">comment_0-&gt;node_5</title>
      <path
         fill="none"
         stroke="#808080"
         stroke-dasharray="5, 2"
         d="m 215.5,-173.8 c 0,11.64 0,27.25 0,40.56"
         id="path90" />
      <polygon
         fill="#808080"
         stroke="#808080"
         points="212,-133.18 219,-133.18 215.5,-123.18 "
         id="polygon92" />
    </g>
  </g>
</svg>
