<?xml version="1.0" encoding="UTF-8" standalone="no"?>
<svg
   version="1.1"
   viewBox="0.0 0.0 1440.0 900.0"
   fill="none"
   stroke="none"
   stroke-linecap="square"
   stroke-miterlimit="10"
   id="svg587"
   sodipodi:docname="ビジネスモデル図解ツールキット配布版P3描画要素_部分抽出_主体.svg"
   inkscape:version="1.1.1 (3bf5ae0d25, 2021-09-20)"
   xmlns:inkscape="http://www.inkscape.org/namespaces/inkscape"
   xmlns:sodipodi="http://sodipodi.sourceforge.net/DTD/sodipodi-0.dtd"
   xmlns="http://www.w3.org/2000/svg"
   xmlns:svg="http://www.w3.org/2000/svg">
  <defs
     id="defs591" />
  <sodipodi:namedview
     id="namedview589"
     pagecolor="#ffffff"
     bordercolor="#666666"
     borderopacity="1.0"
     inkscape:pageshadow="2"
     inkscape:pageopacity="0.0"
     inkscape:pagecheckerboard="0"
     showgrid="false"
     inkscape:zoom="0.84652778"
     inkscape:cx="888.92535"
     inkscape:cy="449.48318"
     inkscape:window-width="1920"
     inkscape:window-height="1009"
     inkscape:window-x="-8"
     inkscape:window-y="-8"
     inkscape:window-maximized="1"
     inkscape:current-layer="svg587" />
  <path
     fill="#ffffff"
     d="m 277.70477,292.15338 h 137.88977 v 32 H 277.70477 Z"
     fill-rule="evenodd"
     id="path169" />
  <path
     d="M 0,0 H 1440 V 900 H 0 Z"
     clip-rule="nonzero"
     id="path2" />
  <g
     id="g21293">
    <g
       id="g21220">
      <path
         fill="#ffffff"
         d="m 168.35603,278.83496 h 72.2952 c 0,0 2.56715,-78.49985 -37.09697,-78.49985 -39.66411,0 -35.19823,78.49985 -35.19823,78.49985 z"
         fill-rule="evenodd"
         id="path87" />
      <path
         stroke="#000000"
         stroke-width="4"
         stroke-miterlimit="400"
         stroke-linecap="butt"
         d="m 168.35603,278.83496 h 72.2952 c 0,0 2.56715,-78.49985 -37.09697,-78.49985 -39.66411,0 -35.19823,78.49985 -35.19823,78.49985 z"
         fill-rule="evenodd"
         id="path89" />
      <path
         fill="#ffffff"
         d="m 171.11568,178.29968 c 0,-18.58417 14.66818,-33.6496 32.76233,-33.6496 8.6891,0 17.02232,3.54521 23.16646,9.85573 6.14412,6.31053 9.59585,14.86945 9.59585,23.79387 0,18.58417 -14.66818,33.64961 -32.76231,33.64961 -18.09415,0 -32.76233,-15.06544 -32.76233,-33.64961 z"
         fill-rule="evenodd"
         id="path91" />
      <path
         stroke="#000000"
         stroke-width="4"
         stroke-miterlimit="400"
         stroke-linecap="butt"
         d="m 171.11568,178.29968 c 0,-18.58417 14.66818,-33.6496 32.76233,-33.6496 8.6891,0 17.02232,3.54521 23.16646,9.85573 6.14412,6.31053 9.59585,14.86945 9.59585,23.79387 0,18.58417 -14.66818,33.64961 -32.76231,33.64961 -18.09415,0 -32.76233,-15.06544 -32.76233,-33.64961 z"
         fill-rule="evenodd"
         id="path93" />
    </g>
    <text
       xml:space="preserve"
       style="font-style:normal;font-weight:normal;font-size:24px;line-height:1.25;font-family:sans-serif;fill:#000000;fill-opacity:1;stroke:none"
       x="179.55702"
       y="324.85641"
       id="text4744"><tspan
         sodipodi:role="line"
         id="tspan4742"
         x="179.55702"
         y="324.85641">ヒト</tspan></text>
  </g>
  <g
     id="g21314">
    <g
       id="g21238">
      <path
         fill="#ffffff"
         d="m 310.41177,145.3643 h 72.47244 v 132.7559 h -72.47244 z"
         fill-rule="evenodd"
         id="path413" />
      <path
         stroke="#000000"
         stroke-width="4"
         stroke-miterlimit="400"
         stroke-linecap="butt"
         d="m 310.41177,145.3643 h 72.47244 v 132.7559 h -72.47244 z"
         fill-rule="evenodd"
         id="path415" />
      <path
         fill="#ffffff"
         d="m 322.73227,158.50919 h 19.08664 v 19.65355 h -19.08664 z"
         fill-rule="evenodd"
         id="path417" />
      <path
         stroke="#000000"
         stroke-width="2"
         stroke-miterlimit="400"
         stroke-linecap="butt"
         d="m 322.73227,158.50919 h 19.08664 v 19.65355 h -19.08664 z"
         fill-rule="evenodd"
         id="path419" />
      <path
         fill="#ffffff"
         d="m 351.47507,158.50919 h 19.08661 v 19.65355 h -19.08661 z"
         fill-rule="evenodd"
         id="path421" />
      <path
         stroke="#000000"
         stroke-width="2"
         stroke-miterlimit="400"
         stroke-linecap="butt"
         d="m 351.47507,158.50919 h 19.08661 v 19.65355 h -19.08661 z"
         fill-rule="evenodd"
         id="path423" />
      <path
         fill="#ffffff"
         d="m 322.73227,188.55664 h 19.08664 v 19.65353 h -19.08664 z"
         fill-rule="evenodd"
         id="path425" />
      <path
         stroke="#000000"
         stroke-width="2"
         stroke-miterlimit="400"
         stroke-linecap="butt"
         d="m 322.73227,188.55664 h 19.08664 v 19.65353 h -19.08664 z"
         fill-rule="evenodd"
         id="path427" />
      <path
         fill="#ffffff"
         d="m 351.47507,188.55664 h 19.08661 v 19.65353 h -19.08661 z"
         fill-rule="evenodd"
         id="path429" />
      <path
         stroke="#000000"
         stroke-width="2"
         stroke-miterlimit="400"
         stroke-linecap="butt"
         d="m 351.47507,188.55664 h 19.08661 v 19.65353 h -19.08661 z"
         fill-rule="evenodd"
         id="path431" />
      <path
         fill="#ffffff"
         d="m 322.73227,218.60408 h 19.08664 v 19.65355 h -19.08664 z"
         fill-rule="evenodd"
         id="path433" />
      <path
         stroke="#000000"
         stroke-width="2"
         stroke-miterlimit="400"
         stroke-linecap="butt"
         d="m 322.73227,218.60408 h 19.08664 v 19.65355 h -19.08664 z"
         fill-rule="evenodd"
         id="path435" />
      <path
         fill="#ffffff"
         d="m 351.47507,218.60408 h 19.08661 v 19.65355 h -19.08661 z"
         fill-rule="evenodd"
         id="path437" />
      <path
         stroke="#000000"
         stroke-width="2"
         stroke-miterlimit="400"
         stroke-linecap="butt"
         d="m 351.47507,218.60408 h 19.08661 v 19.65355 h -19.08661 z"
         fill-rule="evenodd"
         id="path439" />
      <path
         fill="#000000"
         fill-opacity="0"
         d="m 328.6614,253.97375 h 36.25198 v 24.7244 H 328.6614 Z"
         fill-rule="evenodd"
         id="path441" />
      <path
         stroke="#000000"
         stroke-width="2"
         stroke-miterlimit="400"
         stroke-linecap="butt"
         d="m 328.6614,253.97375 h 36.25198 v 24.7244 H 328.6614 Z"
         fill-rule="evenodd"
         id="path443" />
    </g>
    <text
       xml:space="preserve"
       style="font-style:normal;font-weight:normal;font-size:24px;line-height:1.25;font-family:sans-serif;fill:#000000;fill-opacity:1;stroke:none"
       x="318.94995"
       y="327.21902"
       id="text5408"><tspan
         sodipodi:role="line"
         id="tspan5406"
         x="318.94995"
         y="327.21902">会社</tspan></text>
  </g>
  <g
     id="g21806">
    <g
       id="g21247">
      <path
         fill="#fefc41"
         d="m 471.53125,180.17911 h 72.47241 v 95.52756 h -72.47241 z"
         fill-rule="evenodd"
         id="path111" />
      <path
         fill="#000000"
         fill-opacity="0"
         d="m 471.53125,145.36557 h 72.47241 v 132.75589 h -72.47241 z"
         fill-rule="evenodd"
         id="path113" />
      <path
         stroke="#000000"
         stroke-width="4"
         stroke-miterlimit="400"
         stroke-linecap="butt"
         d="m 471.53125,145.36557 h 72.47241 v 132.75589 h -72.47241 z"
         fill-rule="evenodd"
         id="path115" />
      <path
         fill="#000000"
         fill-opacity="0"
         d="m 471.02625,214.93176 h 72.97638 v 25.98425 h -72.97638 z"
         fill-rule="evenodd"
         id="path117" />
      <path
         fill="#000000"
         d="m 506.0123,239.92389 v -5.28125 h -6.75 v -2.26563 h 6.75 v -2.32812 h -6.75 v -2.40625 h 5.54687 l -6.60937,-11.57813 h 3.25 l 4.71875,8.40625 q 0.79687,1.42188 1.23437,2.5 0.375,-0.85937 1.34375,-2.65625 l 4.45316,-8.25 h 3.48438 l -6.59379,11.57813 h 5.54691 v 2.40625 h -6.70316 v 2.32812 h 6.70316 v 2.26563 h -6.70316 v 5.28125 z"
         fill-rule="nonzero"
         id="path119" />
      <path
         fill="#000000"
         fill-opacity="0"
         d="m 470.27423,181.13322 h 74.99213"
         fill-rule="evenodd"
         id="path121" />
      <path
         stroke="#000000"
         stroke-width="2"
         stroke-miterlimit="400"
         stroke-linecap="butt"
         d="m 470.27423,181.13322 h 74.99213"
         fill-rule="evenodd"
         id="path123" />
    </g>
    <text
       xml:space="preserve"
       style="font-style:normal;font-weight:normal;font-size:24px;line-height:1.25;font-family:sans-serif;fill:#000000;fill-opacity:1;stroke:none"
       x="478.42493"
       y="330.76291"
       id="text5940"><tspan
         sodipodi:role="line"
         id="tspan5938"
         x="478.42493"
         y="330.76291">カネ</tspan></text>
  </g>
  <g
     id="g21813">
    <g
       id="g21251">
      <path
         fill="#d4fca9"
         d="m 607.2083,211.74036 c 0,-23.22205 18.32458,-42.04724 40.92914,-42.04724 10.85504,0 21.26556,4.42996 28.94122,12.31535 7.67572,7.88539 11.98792,18.58028 11.98792,29.73189 0,23.22206 -18.32465,42.04726 -40.92914,42.04726 -22.60455,0 -40.92914,-18.8252 -40.92914,-42.04726 z"
         fill-rule="evenodd"
         id="path153" />
      <path
         stroke="#000000"
         stroke-width="4"
         stroke-miterlimit="400"
         stroke-linecap="butt"
         d="m 607.2083,211.74036 c 0,-23.22205 18.32458,-42.04724 40.92914,-42.04724 10.85504,0 21.26556,4.42996 28.94122,12.31535 7.67572,7.88539 11.98792,18.58028 11.98792,29.73189 0,23.22206 -18.32465,42.04726 -40.92914,42.04726 -22.60455,0 -40.92914,-18.8252 -40.92914,-42.04726 z"
         fill-rule="evenodd"
         id="path155" />
    </g>
    <text
       xml:space="preserve"
       style="font-style:normal;font-weight:normal;font-size:24px;line-height:1.25;font-family:sans-serif;fill:#000000;fill-opacity:1;stroke:none"
       x="628.44952"
       y="331.94421"
       id="text6736"><tspan
         sodipodi:role="line"
         id="tspan6734"
         x="628.44952"
         y="331.94421">モノ</tspan></text>
  </g>
  <g
     id="g21823">
    <g
       id="g21258">
      <path
         fill="#cbecfa"
         d="m 752.5391,180.17911 h 72.47241 v 95.52756 H 752.5391 Z"
         fill-rule="evenodd"
         id="path445" />
      <path
         fill="#000000"
         fill-opacity="0"
         d="m 752.5391,145.36557 h 72.47241 V 278.12146 H 752.5391 Z"
         fill-rule="evenodd"
         id="path447" />
      <path
         stroke="#000000"
         stroke-width="4"
         stroke-miterlimit="400"
         stroke-linecap="butt"
         d="m 752.5391,145.36557 h 72.47241 V 278.12146 H 752.5391 Z"
         fill-rule="evenodd"
         id="path449" />
      <path
         fill="#000000"
         fill-opacity="0"
         d="m 751.28204,181.13322 h 74.99213"
         fill-rule="evenodd"
         id="path451" />
      <path
         stroke="#000000"
         stroke-width="2"
         stroke-miterlimit="400"
         stroke-linecap="butt"
         d="m 751.28204,181.13322 h 74.99213"
         fill-rule="evenodd"
         id="path453" />
    </g>
    <text
       xml:space="preserve"
       style="font-style:normal;font-weight:normal;font-size:24px;line-height:1.25;font-family:sans-serif;fill:#000000;fill-opacity:1;stroke:none"
       x="765.47992"
       y="333.12552"
       id="text7916"><tspan
         sodipodi:role="line"
         id="tspan7914"
         x="765.47992"
         y="333.12552">情報</tspan></text>
  </g>
  <g
     id="g21834">
    <g
       id="g21266">
      <path
         fill="#ffffff"
         d="m 899.9588,151.41982 c 0,-3.3287 2.69849,-6.02716 6.02716,-6.02716 h 59.12976 c 1.59851,0 3.13153,0.63501 4.26184,1.76532 1.13031,1.13031 1.76532,2.66333 1.76532,4.26184 v 120.74989 c 0,3.3287 -2.69848,6.02716 -6.02716,6.02716 h -59.12976 c -3.32867,0 -6.02716,-2.69846 -6.02716,-6.02716 z"
         fill-rule="evenodd"
         id="path95" />
      <path
         stroke="#000000"
         stroke-width="4"
         stroke-miterlimit="400"
         stroke-linecap="butt"
         d="m 899.9588,151.41982 c 0,-3.3287 2.69849,-6.02716 6.02716,-6.02716 h 59.12976 c 1.59851,0 3.13153,0.63501 4.26184,1.76532 1.13031,1.13031 1.76532,2.66333 1.76532,4.26184 v 120.74989 c 0,3.3287 -2.69848,6.02716 -6.02716,6.02716 h -59.12976 c -3.32867,0 -6.02716,-2.69846 -6.02716,-6.02716 z"
         fill-rule="evenodd"
         id="path97" />
      <path
         fill="#ffffff"
         d="m 908.10547,155.30402 h 55.98151 v 95.95048 h -55.98151 z"
         fill-rule="evenodd"
         id="path99" />
      <path
         stroke="#000000"
         stroke-width="2"
         stroke-miterlimit="400"
         stroke-linecap="butt"
         d="m 908.10547,155.30402 h 55.98151 v 95.95048 h -55.98151 z"
         fill-rule="evenodd"
         id="path101" />
      <path
         fill="#ffffff"
         d="m 929.1303,264.16162 c 0,-3.99161 3.1452,-7.22745 7.02496,-7.22745 1.8631,0 3.64997,0.76145 4.96741,2.11685 1.31738,1.35541 2.05756,3.19376 2.05756,5.1106 0,3.99158 -3.14521,7.22742 -7.02497,7.22742 -3.87976,0 -7.02496,-3.23584 -7.02496,-7.22742 z"
         fill-rule="evenodd"
         id="path103" />
      <path
         stroke="#000000"
         stroke-width="2"
         stroke-miterlimit="400"
         stroke-linecap="butt"
         d="m 929.1303,264.16162 c 0,-3.99161 3.1452,-7.22745 7.02496,-7.22745 1.8631,0 3.64997,0.76145 4.96741,2.11685 1.31738,1.35541 2.05756,3.19376 2.05756,5.1106 0,3.99158 -3.14521,7.22742 -7.02497,7.22742 -3.87976,0 -7.02496,-3.23584 -7.02496,-7.22742 z"
         fill-rule="evenodd"
         id="path105" />
    </g>
    <text
       xml:space="preserve"
       style="font-style:normal;font-weight:normal;font-size:24px;line-height:1.25;font-family:sans-serif;fill:#000000;fill-opacity:1;stroke:none"
       x="901.32898"
       y="336.6694"
       id="text9240"><tspan
         sodipodi:role="line"
         id="tspan9238"
         x="901.32898"
         y="336.6694">スマホ</tspan></text>
  </g>
  <g
     id="g21851">
    <g
       id="g21280">
      <path
         fill="#ffffff"
         d="m 1034.8096,145.44731 h 74.1853 v 132.10677 h -74.1853 z"
         fill-rule="evenodd"
         id="path561" />
      <path
         stroke="#000000"
         stroke-width="4"
         stroke-miterlimit="400"
         stroke-linecap="butt"
         d="m 1034.8096,145.44731 h 74.1853 v 132.10677 h -74.1853 z"
         fill-rule="evenodd"
         id="path563" />
      <path
         fill="#000000"
         fill-opacity="0"
         d="m 1034.8096,145.44731 h 74.1853 v 36.19363 h -74.1853 z"
         fill-rule="evenodd"
         id="path565" />
      <path
         stroke="#000000"
         stroke-width="2"
         stroke-miterlimit="400"
         stroke-linecap="butt"
         d="m 1034.8096,145.44731 h 74.1853 v 36.19363 h -74.1853 z"
         fill-rule="evenodd"
         id="path567" />
      <path
         fill="#000000"
         fill-opacity="0"
         d="m 1056.3442,242.23792 h 31.1171 v 35.07727 h -31.1171 z"
         fill-rule="evenodd"
         id="path569" />
      <path
         stroke="#000000"
         stroke-width="2"
         stroke-miterlimit="400"
         stroke-linecap="butt"
         d="m 1056.3442,242.23792 h 31.1171 v 35.07727 h -31.1171 z"
         fill-rule="evenodd"
         id="path571" />
      <path
         fill="#000000"
         fill-opacity="0"
         d="m 1054.2102,143.94164 v 38.57912"
         fill-rule="evenodd"
         id="path573" />
      <path
         stroke="#000000"
         stroke-width="2"
         stroke-miterlimit="400"
         stroke-linecap="butt"
         d="m 1054.2102,143.94164 v 38.57912"
         fill-rule="evenodd"
         id="path575" />
      <path
         fill="#000000"
         fill-opacity="0"
         d="m 1072.0872,143.94164 v 38.57912"
         fill-rule="evenodd"
         id="path577" />
      <path
         stroke="#000000"
         stroke-width="2"
         stroke-miterlimit="400"
         stroke-linecap="butt"
         d="m 1072.0872,143.94164 v 38.57912"
         fill-rule="evenodd"
         id="path579" />
      <path
         fill="#000000"
         fill-opacity="0"
         d="m 1089.4985,143.94164 v 38.57912"
         fill-rule="evenodd"
         id="path581" />
      <path
         stroke="#000000"
         stroke-width="2"
         stroke-miterlimit="400"
         stroke-linecap="butt"
         d="m 1089.4985,143.94164 v 38.57912"
         fill-rule="evenodd"
         id="path583" />
    </g>
    <text
       xml:space="preserve"
       style="font-style:normal;font-weight:normal;font-size:24px;line-height:1.25;font-family:sans-serif;fill:#000000;fill-opacity:1;stroke:none"
       x="1047.8096"
       y="341.39459"
       id="text9904"><tspan
         sodipodi:role="line"
         id="tspan9902"
         x="1047.8096"
         y="341.39459">店舗</tspan></text>
  </g>
  <g
     id="g21858">
    <g
       id="g21284">
      <path
         fill="#000000"
         fill-opacity="0"
         d="m 1163.0956,145.36557 h 72.4724 v 132.75589 h -72.4724 z"
         fill-rule="evenodd"
         id="path37" />
      <path
         stroke="#000000"
         stroke-width="4"
         stroke-miterlimit="400"
         stroke-linecap="butt"
         d="m 1163.0956,145.36557 h 72.4724 v 132.75589 h -72.4724 z"
         fill-rule="evenodd"
         id="path39" />
    </g>
    <text
       xml:space="preserve"
       style="font-style:normal;font-weight:normal;font-size:24px;line-height:1.25;font-family:sans-serif;fill:#000000;fill-opacity:1;stroke:none"
       x="1163.5768"
       y="344.93848"
       id="text10622"><tspan
         sodipodi:role="line"
         id="tspan10620"
         x="1163.5768"
         y="344.93848">その他</tspan></text>
  </g>
  <text
     xml:space="preserve"
     style="font-style:normal;font-weight:normal;font-size:24px;line-height:1.25;font-family:sans-serif;fill:#000000;fill-opacity:1;stroke:none"
     x="392.19034"
     y="435.89825"
     id="text11616"><tspan
       sodipodi:role="line"
       id="tspan11614"
       x="392.19034"
       y="435.89825"
       style="font-size:24px">イメージに近いものを配置すればOK 正解があるわけではない</tspan></text>
</svg>
