<?xml version="1.0" encoding="UTF-8" standalone="no"?>
<!-- Created with Inkscape (http://www.inkscape.org/) -->

<svg
   width="20.236225mm"
   height="36.561409mm"
   viewBox="0 0 20.236225 36.561409"
   version="1.1"
   id="svg1393"
   inkscape:version="1.1.1 (3bf5ae0d25, 2021-09-20)"
   sodipodi:docname="entity_person.svg"
   xmlns:inkscape="http://www.inkscape.org/namespaces/inkscape"
   xmlns:sodipodi="http://sodipodi.sourceforge.net/DTD/sodipodi-0.dtd"
   xmlns="http://www.w3.org/2000/svg"
   xmlns:svg="http://www.w3.org/2000/svg">
  <sodipodi:namedview
     id="namedview1395"
     pagecolor="#ffffff"
     bordercolor="#666666"
     borderopacity="1.0"
     inkscape:pageshadow="2"
     inkscape:pageopacity="0.0"
     inkscape:pagecheckerboard="0"
     inkscape:document-units="mm"
     showgrid="false"
     fit-margin-top="0"
     fit-margin-left="0"
     fit-margin-right="0"
     fit-margin-bottom="0"
     inkscape:zoom="0.73406285"
     inkscape:cx="-155.98119"
     inkscape:cy="70.15748"
     inkscape:window-width="1920"
     inkscape:window-height="1009"
     inkscape:window-x="-8"
     inkscape:window-y="-8"
     inkscape:window-maximized="1"
     inkscape:current-layer="layer1" />
  <defs
     id="defs1390" />
  <g
     inkscape:label="Layer 1"
     inkscape:groupmode="layer"
     id="layer1"
     transform="translate(-94.881887,-130.21929)">
    <g
       id="g1824">
      <path
         style="fill:none;stroke:none;stroke-width:0.99781;stroke-linecap:round;stroke-linejoin:round"
         d="M 94.915565,148.5 V 130.47807 H 105 115.08443 V 148.5 166.52193 H 105 94.915565 Z"
         id="path1111" />
      <g
         id="g1700"
         transform="translate(73.281554,-29.02709)">
        <path
           fill="#ffffff"
           d="m 22.170036,195.27863 h 19.128105 c 0,0 0.679225,-20.76975 -9.81524,-20.76975 -10.494462,0 -9.312865,20.76975 -9.312865,20.76975 z"
           fill-rule="evenodd"
           id="path87"
           style="fill:none;stroke-width:0.264583" />
        <path
           stroke="#000000"
           stroke-width="1.05833"
           stroke-miterlimit="400"
           stroke-linecap="butt"
           d="m 22.170036,195.27863 h 19.128105 c 0,0 0.679225,-20.76975 -9.81524,-20.76975 -10.494462,0 -9.312865,20.76975 -9.312865,20.76975 z"
           fill-rule="evenodd"
           id="path89"
           style="fill:#ffffff" />
        <path
           fill="#ffffff"
           d="m 22.900193,168.67867 c 0,-4.91706 3.880956,-8.90312 8.668367,-8.90312 2.298991,0 4.503822,0.938 6.129459,2.60766 1.625632,1.66966 2.538902,3.93421 2.538902,6.29546 0,4.91706 -3.880956,8.90313 -8.668361,8.90313 -4.787411,0 -8.668367,-3.98607 -8.668367,-8.90313 z"
           fill-rule="evenodd"
           id="path91"
           style="fill:none;stroke-width:0.264583" />
        <path
           stroke="#000000"
           stroke-width="1.05833"
           stroke-miterlimit="400"
           stroke-linecap="butt"
           d="m 22.900193,168.67867 c 0,-4.91706 3.880956,-8.90312 8.668367,-8.90312 2.298991,0 4.503822,0.938 6.129459,2.60766 1.625632,1.66966 2.538902,3.93421 2.538902,6.29546 0,4.91706 -3.880956,8.90313 -8.668361,8.90313 -4.787411,0 -8.668367,-3.98607 -8.668367,-8.90313 z"
           fill-rule="evenodd"
           id="path93"
           style="fill:#ffffff" />
      </g>
    </g>
  </g>
</svg>
