<?xml version="1.0" encoding="UTF-8" standalone="no"?>
<!-- Created with Inkscape (http://www.inkscape.org/) -->

<svg
   width="20.236225mm"
   height="36.561409mm"
   viewBox="0 0 20.236225 36.561409"
   version="1.1"
   id="svg1393"
   inkscape:version="1.1.1 (3bf5ae0d25, 2021-09-20)"
   sodipodi:docname="entity_object.svg"
   xmlns:inkscape="http://www.inkscape.org/namespaces/inkscape"
   xmlns:sodipodi="http://sodipodi.sourceforge.net/DTD/sodipodi-0.dtd"
   xmlns="http://www.w3.org/2000/svg"
   xmlns:svg="http://www.w3.org/2000/svg">
  <sodipodi:namedview
     id="namedview1395"
     pagecolor="#ffffff"
     bordercolor="#666666"
     borderopacity="1.0"
     inkscape:pageshadow="2"
     inkscape:pageopacity="0.0"
     inkscape:pagecheckerboard="0"
     inkscape:document-units="mm"
     showgrid="false"
     fit-margin-top="0"
     fit-margin-left="0"
     fit-margin-right="0"
     fit-margin-bottom="0"
     inkscape:zoom="0.73406285"
     inkscape:cx="141.67724"
     inkscape:cy="69.47634"
     inkscape:window-width="1228"
     inkscape:window-height="472"
     inkscape:window-x="693"
     inkscape:window-y="97"
     inkscape:window-maximized="0"
     inkscape:current-layer="layer1" />
  <defs
     id="defs1390" />
  <g
     inkscape:label="Layer 1"
     inkscape:groupmode="layer"
     id="layer1"
     transform="translate(-94.881887,-130.21929)">
    <path
       style="fill:none;stroke:none;stroke-width:0.99781;stroke-linecap:round;stroke-linejoin:round"
       d="M 94.915565,148.5 V 130.47807 H 105 115.08443 V 148.5 166.52193 H 105 94.915565 Z"
       id="path1111" />
    <g
       id="g27467"
       transform="matrix(0.89054466,0,0,0.89054466,-33.10108,4.2717628)">
      <path
         stroke="#000000"
         stroke-width="1.05833"
         stroke-miterlimit="400"
         stroke-linecap="butt"
         d="m 144.24568,161.95508 c 0,-6.14417 4.84838,-11.125 10.82917,-11.125 2.87206,0 5.62651,1.17209 7.65736,3.25844 2.03087,2.08634 3.17181,4.91603 3.17181,7.86656 0,6.14417 -4.8484,11.125 -10.82917,11.125 -5.98079,0 -10.82917,-4.98083 -10.82917,-11.125 z"
         fill-rule="evenodd"
         id="path155" />
      <path
         fill="#d4fca9"
         d="m 144.24568,161.95508 c 0,-6.14417 4.84838,-11.125 10.82917,-11.125 2.87206,0 5.62651,1.17209 7.65736,3.25844 2.03087,2.08634 3.17181,4.91603 3.17181,7.86656 0,6.14417 -4.8484,11.125 -10.82917,11.125 -5.98079,0 -10.82917,-4.98083 -10.82917,-11.125 z"
         fill-rule="evenodd"
         id="path153"
         style="stroke-width:0.264583" />
    </g>
  </g>
</svg>
